<svg width="12" height="12" viewBox="0 0 12 12" fill="none" xmlns="http://www.w3.org/2000/svg">
<path d="M11.52 8.94665V11.304C11.5201 11.4728 11.4587 11.6353 11.3482 11.7588C11.2378 11.8823 11.0864 11.9575 10.9248 11.9693C10.6451 11.9894 10.4166 12 10.24 12C4.58432 12 0 7.22465 0 1.33334C0 1.14934 0.0096 0.911335 0.02944 0.62C0.0407823 0.45163 0.113012 0.294007 0.231554 0.178939C0.350097 0.063871 0.506126 -7.62885e-05 0.66816 1.71054e-07H2.9312C3.01058 -8.35565e-05 3.08717 0.0305727 3.14607 0.0860135C3.20496 0.141455 3.24198 0.217722 3.24992 0.3C3.26464 0.453333 3.27808 0.575335 3.29088 0.668C3.41807 1.59262 3.67872 2.49189 4.064 3.33534C4.1248 3.46867 4.08512 3.628 3.96992 3.71334L2.5888 4.74133C3.43325 6.79095 5.00131 8.42435 6.96897 9.304L7.95456 7.868C7.99483 7.80935 8.05363 7.76725 8.12064 7.7491C8.18765 7.73095 8.25864 7.73785 8.32128 7.76865C9.13089 8.16925 9.99398 8.4401 10.8813 8.572C10.9703 8.58535 11.0874 8.6 11.2333 8.61465C11.3122 8.6231 11.3852 8.6617 11.4383 8.72305C11.4914 8.7844 11.5207 8.8641 11.5206 8.94665H11.52Z" fill="#202439"/>
</svg>
