<svg width="56" height="43" viewBox="0 0 56 43" fill="none" xmlns="http://www.w3.org/2000/svg">
<path fill-rule="evenodd" clip-rule="evenodd" d="M4.9 0.0115513V33.2616H19.76C21.6497 33.1871 23.5327 33.5284 25.276 34.2616C25.8107 34.4964 26.3234 34.7785 26.808 35.1046V3.15155C26.2058 2.1376 25.3295 1.31434 24.28 0.776551C22.8447 0.203676 21.3039 -0.0574303 19.76 0.0105518H4.9V0.0115513ZM19.76 35.5596H3.747C3.59549 35.5621 3.44502 35.5342 3.30456 35.4773C3.16411 35.4204 3.03654 35.3359 2.92949 35.2286C2.82244 35.1214 2.73809 34.9937 2.68148 34.8531C2.62487 34.7126 2.59716 34.5621 2.6 34.4106V4.91055H0V38.2416H17.537C21.521 38.2416 23.589 38.7775 25.351 42.2256H30.484C32.246 38.7775 34.391 38.2416 38.298 38.2416H55.844V4.91455H53.244V34.4146C53.2468 34.5662 53.2191 34.7169 53.1623 34.8576C53.1056 34.9983 53.0211 35.1261 52.9138 35.2334C52.8065 35.3406 52.6787 35.4252 52.5381 35.4819C52.3974 35.5386 52.2467 35.5664 52.095 35.5636H36.077C32.859 35.5636 30.408 36.0236 28.952 38.9346C28.8675 39.1447 28.7202 39.3237 28.5302 39.4471C28.3402 39.5704 28.1168 39.632 27.8904 39.6236C27.6641 39.6152 27.4458 39.5371 27.2655 39.4C27.0852 39.2629 26.9516 39.0734 26.883 38.8576C25.583 36.0996 22.823 35.5636 19.758 35.5636L19.76 35.5596ZM29.107 3.15255V35.0996C30.946 33.6436 33.397 33.2606 36.079 33.2606H50.941V0.0115513H36.078C34.5341 -0.0564309 32.9933 0.204678 31.558 0.777552C30.515 1.29698 29.6584 2.12665 29.106 3.15255H29.107Z" fill="#FFC700"/>
</svg>
