<svg width="163" height="123" viewBox="0 0 163 123" fill="none" xmlns="http://www.w3.org/2000/svg">
<g opacity="0.6">
<g opacity="0.6">
<path opacity="0.6" d="M48.053 96.4095C42.712 106.468 39.5577 120.09 37.6155 141.676C37.4901 143.342 38.1349 144.984 39.4086 146.241C40.6824 147.498 42.4814 148.268 44.4114 148.382H44.897C46.752 148.401 48.5439 147.801 49.9003 146.709C51.2567 145.616 52.0732 144.114 52.1802 142.515C53.6368 126.796 54.6079 124.282 54.6079 123.234C54.1737 116.318 54.336 109.383 55.0934 102.488C52.1266 101.079 49.6849 98.9709 48.053 96.4095V96.4095Z" fill="white"/>
<path opacity="0.6" d="M48.0536 66.6504C48.2964 62.4585 49.0247 54.0763 49.0247 54.4955C44.8976 60.3626 40.7637 60.5722 36.4006 57.8431L24.9902 59.7353C31.3023 66.2326 39.3206 70.2149 48.0519 66.6504H48.0536Z" fill="white"/>
<path opacity="0.6" d="M34.7027 56.5958L43.6853 55.1287L35.9166 33.9628L34.9455 34.171L33.0033 33.7518L28.6351 35.0093L25.7218 30.3969L16.7409 37.9421L16.2554 39.8343L21.1108 52.1987L23.3025 57.4385L25.2447 58.2769L34.7027 56.5958Z" fill="white"/>
<path opacity="0.6" d="M63.8324 35.4242C64.7801 35.6655 65.7585 35.8063 66.7457 35.8434C67.9646 35.8781 69.1844 35.8079 70.3872 35.6338C73.542 35.1519 76.422 33.779 78.5749 31.7307C80.7277 29.6824 82.0315 27.0747 82.2814 24.3173C82.572 21.0102 81.3291 17.7389 78.826 15.2231C76.3228 12.7072 72.7646 11.1529 68.934 10.902C65.1034 10.651 61.3142 11.7241 58.4001 13.8851C55.4859 16.0462 53.6855 19.1181 53.3948 22.4251C53.1373 25.297 54.0349 28.1577 55.9363 30.5247C57.8377 32.8917 60.6265 34.6201 63.8324 35.4184V35.4242Z" fill="white"/>
<path opacity="0.6" d="M86.6489 104.582C82.7713 108.145 82.7713 118.204 86.6489 121.767H167.236C165.641 119.112 164.808 116.165 164.808 113.175C164.808 110.184 165.641 107.237 167.236 104.582H86.6489Z" fill="white"/>
<path opacity="0.6" d="M167.241 65.8135H104.127C103.985 66.7488 103.578 67.6396 102.943 68.4072C102.308 69.1748 101.464 69.7956 100.485 70.215C81.7935 79.0178 84.4691 77.7603 83.9785 77.9699C84.368 79.8124 85.2861 81.5413 86.649 82.9986H167.236C165.581 80.3652 164.745 77.4066 164.808 74.4112C164.774 71.4188 165.608 68.4666 167.234 65.8237L167.241 65.8135Z" fill="white"/>
<path opacity="0.6" d="M78.3951 85.093C78.3958 85.1207 78.39 85.1482 78.378 85.1739C78.3661 85.1996 78.3482 85.223 78.3255 85.2426C78.3028 85.2622 78.2758 85.2776 78.246 85.2879C78.2162 85.2982 78.1844 85.3032 78.1523 85.3026C75.239 89.2849 75.4818 98.715 78.3951 102.278H139.088C136.661 96.7414 136.661 90.6297 139.088 85.093H78.3951Z" fill="white"/>
<path opacity="0.6" d="M72.5719 99.3438L74.0286 98.0862C72.5719 90.9543 75.2424 83.2067 77.6701 83.2067H78.3985L78.6412 78.3875C77.3095 77.9824 76.1406 77.2556 75.2734 76.2936C74.4063 75.3316 73.8773 74.1748 73.7495 72.9608C73.6216 71.7468 73.9002 70.5267 74.5522 69.4454C75.2042 68.3642 76.2022 67.4673 77.4274 66.8615L79.6191 65.8135C79.8619 64.1368 80.3474 55.7545 80.3474 56.1737C80.5902 56.3833 87.6306 62.4615 87.1433 62.2504L88.8428 63.7176C87.6783 64.3531 86.4612 64.9135 85.2012 65.3943C84.9584 65.6039 82.7734 66.4423 83.0095 66.4423C81.8451 67.0778 80.6279 67.6382 79.3679 68.119C78.5096 68.4 77.7594 68.8825 77.2021 69.5121C76.6447 70.1417 76.3023 70.8933 76.2135 71.6821C75.9707 74.8259 79.8551 76.7108 81.3117 76.2931C83.5034 76.2931 86.6527 73.9876 99.2752 68.3301C100.037 67.9495 100.665 67.3979 101.092 66.7339C101.52 66.0698 101.731 65.3182 101.703 64.5589C101.629 63.464 101.113 62.426 100.246 61.6246L96.3687 58.2769L82.5323 46.1221L77.193 41.5096L76.4647 40.8808C73.9407 38.8328 70.6918 37.5777 67.2411 37.3178C63.3906 37.1399 59.6119 38.2671 56.7099 40.4592C53.808 42.6513 52.0123 45.735 51.7053 49.0534C49.2776 80.4922 48.792 85.732 48.5509 88.6619C48.4334 90.3625 48.6803 92.0673 49.2792 93.6906C49.9297 95.3703 51.0101 96.9019 52.4403 98.1716C53.8705 99.4414 55.6136 100.417 57.5403 101.025C56.0836 115.485 56.0836 128.059 60.4535 142.52C60.8584 143.875 61.765 145.08 63.0356 145.95C64.3061 146.82 65.8711 147.307 67.4923 147.339C68.1491 147.373 68.8075 147.302 69.4344 147.129C70.9611 146.782 72.3221 146.028 73.3242 144.975C74.3262 143.922 74.9184 142.622 75.0165 141.262C75.057 140.624 74.975 139.985 74.7738 139.37C70.8961 127.007 70.6466 112.336 72.5821 99.3438H72.5719Z" fill="white"/>
</g>
</g>
</svg>
