<svg width="147" height="113" viewBox="0 0 147 113" fill="none" xmlns="http://www.w3.org/2000/svg">
<g opacity="0.6">
<path opacity="0.6" d="M32.053 86.4095C26.712 96.4685 23.5577 110.09 21.6155 131.676C21.4901 133.342 22.1349 134.984 23.4086 136.241C24.6824 137.498 26.4814 138.268 28.4114 138.382H28.897C30.752 138.401 32.5439 137.801 33.9003 136.709C35.2567 135.616 36.0732 134.114 36.1802 132.515C37.6368 116.796 38.6079 114.282 38.6079 113.234C38.1737 106.318 38.336 99.3833 39.0934 92.4877C36.1266 91.0789 33.6849 88.9709 32.053 86.4095Z" fill="white"/>
<path opacity="0.6" d="M32.0536 56.6504C32.2964 52.4586 33.0247 44.0763 33.0247 44.4955C28.8976 50.3626 24.7637 50.5722 20.4006 47.8432L8.99023 49.7353C15.3023 56.2327 23.3206 60.2149 32.0519 56.6504H32.0536Z" fill="white"/>
<path opacity="0.6" d="M18.7027 46.5958L27.6853 45.1287L19.9166 23.9628L18.9455 24.171L17.0033 23.7518L12.6351 25.0094L9.72182 20.3969L0.74092 27.9422L0.255371 29.8343L5.11083 42.1988L7.30252 47.4386L9.2447 48.2769L18.7027 46.5958Z" fill="white"/>
<path opacity="0.6" d="M47.8324 25.4242C48.7801 25.6655 49.7585 25.8063 50.7457 25.8434C51.9646 25.8781 53.1844 25.8079 54.3872 25.6338C57.542 25.1519 60.422 23.779 62.5749 21.7307C64.7277 19.6824 66.0315 17.0747 66.2814 14.3173C66.572 11.0102 65.3291 7.73896 62.826 5.2231C60.3228 2.70724 56.7646 1.15289 52.934 0.901971C49.1034 0.651057 45.3142 1.72414 42.4001 3.88515C39.4859 6.04617 37.6855 9.11809 37.3948 12.4251C37.1373 15.297 38.0349 18.1577 39.9363 20.5247C41.8377 22.8917 44.6265 24.6201 47.8324 25.4184V25.4242Z" fill="white"/>
<path opacity="0.6" d="M70.6489 94.5822C66.7713 98.1452 66.7713 108.204 70.6489 111.767H151.236C149.641 109.112 148.808 106.165 148.808 103.175C148.808 100.184 149.641 97.237 151.236 94.5822H70.6489Z" fill="white"/>
<path opacity="0.6" d="M151.241 55.8136H88.1269C87.9849 56.7489 87.5784 57.6396 86.9433 58.4072C86.3082 59.1748 85.4641 59.7956 84.4853 60.215C65.7935 69.0178 68.4691 67.7603 67.9785 67.9699C68.368 69.8124 69.2861 71.5414 70.649 72.9986H151.236C149.581 70.3653 148.745 67.4066 148.808 64.4112C148.774 61.4188 149.608 58.4667 151.234 55.8237L151.241 55.8136Z" fill="white"/>
<path opacity="0.6" d="M62.3951 75.093C62.3958 75.1207 62.39 75.1483 62.378 75.174C62.3661 75.1997 62.3482 75.223 62.3255 75.2426C62.3028 75.2622 62.2758 75.2776 62.246 75.2879C62.2162 75.2982 62.1844 75.3032 62.1523 75.3026C59.239 79.2849 59.4818 88.715 62.3951 92.2781H123.088C120.661 86.7414 120.661 80.6297 123.088 75.093H62.3951Z" fill="white"/>
<path opacity="0.6" d="M56.5719 89.3438L58.0286 88.0862C56.5719 80.9543 59.2424 73.2067 61.6701 73.2067H62.3985L62.6412 68.3875C61.3095 67.9823 60.1406 67.2556 59.2734 66.2936C58.4063 65.3316 57.8773 64.1748 57.7495 62.9608C57.6216 61.7468 57.9002 60.5267 58.5522 59.4454C59.2042 58.3642 60.2022 57.4673 61.4274 56.8614L63.6191 55.8135C63.8619 54.1367 64.3474 45.7545 64.3474 46.1737C64.5902 46.3833 71.6306 52.4615 71.1433 52.2504L72.8428 53.7176C71.6783 54.3531 70.4612 54.9135 69.2012 55.3943C68.9584 55.6039 66.7734 56.4422 67.0095 56.4422C65.8451 57.0778 64.6279 57.6382 63.3679 58.119C62.5096 58.4 61.7594 58.8825 61.2021 59.5121C60.6447 60.1417 60.3023 60.8933 60.2135 61.682C59.9707 64.8259 63.8551 66.7108 65.3117 66.2931C67.5034 66.2931 70.6527 63.9876 83.2752 58.33C84.0369 57.9495 84.6648 57.3979 85.0923 56.7338C85.5198 56.0698 85.7308 55.3182 85.703 54.5588C85.6287 53.464 85.1134 52.426 84.2463 51.6245L80.3687 48.2769L66.5323 36.122L61.193 31.5096L60.4647 30.8808C57.9407 28.8328 54.6918 27.5777 51.2411 27.3177C47.3906 27.1399 43.6119 28.267 40.7099 30.4592C37.808 32.6513 36.0123 35.735 35.7053 39.0534C33.2776 70.4922 32.792 75.732 32.5509 78.6619C32.4334 80.3625 32.6803 82.0673 33.2792 83.6906C33.9297 85.3703 35.0101 86.9019 36.4403 88.1716C37.8705 89.4413 39.6136 90.4166 41.5403 91.0249C40.0836 105.485 40.0836 118.059 44.4535 132.52C44.8584 133.875 45.765 135.08 47.0356 135.95C48.3061 136.82 49.8711 137.307 51.4923 137.339C52.1491 137.373 52.8075 137.302 53.4344 137.129C54.9611 136.782 56.3221 136.028 57.3242 134.975C58.3262 133.922 58.9184 132.622 59.0165 131.262C59.057 130.624 58.975 129.985 58.7738 129.37C54.8961 117.007 54.6466 102.336 56.5821 89.3438H56.5719Z" fill="white"/>
</g>
</svg>
