<svg width="24" height="24" viewBox="0 0 24 24" fill="none" xmlns="http://www.w3.org/2000/svg">
<path d="M13.939 5.00002L19 10.06L9.062 20C8.78487 20.2772 8.44016 20.4771 8.062 20.58L2.947 21.975C2.81949 22.0096 2.6851 22.0099 2.55744 21.9759C2.42978 21.9419 2.31337 21.8747 2.22 21.7812C2.12663 21.6878 2.05961 21.5713 2.02572 21.4436C1.99182 21.3159 1.99227 21.1815 2.027 21.054L3.421 15.938C3.5241 15.5602 3.72402 15.2159 4.001 14.939L13.94 5.00002H13.939ZM6.525 11L5.025 12.5H2.75C2.55109 12.5 2.36032 12.421 2.21967 12.2804C2.07902 12.1397 2 11.9489 2 11.75C2 11.5511 2.07902 11.3603 2.21967 11.2197C2.36032 11.079 2.55109 11 2.75 11H6.525ZM20.877 2.82602L21.03 2.97002L21.175 3.12302C21.7812 3.80535 22.1038 4.69349 22.0769 5.60581C22.0499 6.51813 21.6754 7.38568 21.03 8.03102L20.06 9.00002L14.999 3.94002L15.969 2.97002C16.6145 2.32473 17.4821 1.95043 18.3944 1.92366C19.3067 1.89689 20.1948 2.21969 20.877 2.82602ZM10.525 7.00002L9.025 8.50002H2.75C2.55109 8.50002 2.36032 8.42101 2.21967 8.28035C2.07902 8.1397 2 7.94894 2 7.75002C2 7.55111 2.07902 7.36035 2.21967 7.21969C2.36032 7.07904 2.55109 7.00002 2.75 7.00002H10.525ZM14.525 3.00002L13.025 4.50002H2.75C2.55109 4.50002 2.36032 4.42101 2.21967 4.28035C2.07902 4.1397 2 3.94894 2 3.75002C2 3.55111 2.07902 3.36035 2.21967 3.21969C2.36032 3.07904 2.55109 3.00002 2.75 3.00002H14.525Z" fill="#1BC9DF"/>
</svg>
