<svg width="128" height="110" viewBox="0 0 128 110" fill="none" xmlns="http://www.w3.org/2000/svg">
<g opacity="0.6">
<path opacity="0.6" d="M2.83301 4.85452H80.4224C81.0368 4.85452 81.6261 4.63938 82.0605 4.25644C82.495 3.87349 82.7391 3.35411 82.7391 2.81254C82.7391 2.27098 82.495 1.7516 82.0605 1.36865C81.6261 0.985706 81.0368 0.770569 80.4224 0.770569H2.83301C2.22058 0.777621 1.63554 0.995361 1.20271 1.37732C0.769886 1.75928 0.523563 2.27521 0.516302 2.81501C0.504463 3.08586 0.556304 3.35593 0.668577 3.60826C0.78085 3.86059 0.951124 4.08972 1.1687 4.28126C1.38627 4.4728 1.64644 4.6226 1.93285 4.72126C2.21927 4.81991 2.52574 4.86528 2.83301 4.85452Z" fill="white"/>
<path opacity="0.6" d="M80.4215 75.6257H80.8083V53.1702C79.6507 53.5112 78.2996 53.8509 76.9486 54.1906V72.2262H6.31211V8.25914H76.9486V43.4742C78.8784 42.7936 79.2653 42.1154 80.8083 41.7732V4.85461H2.44812V75.6257H2.83494C2.22251 75.6321 1.63717 75.8493 1.20382 76.2308C0.770474 76.6123 0.523437 77.1279 0.515435 77.6677C0.503199 77.9388 0.554749 78.2091 0.666844 78.4617C0.77894 78.7144 0.949157 78.9438 1.16677 79.1356C1.38439 79.3274 1.64469 79.4774 1.9313 79.5762C2.21792 79.675 2.52463 79.7205 2.83214 79.7097H28.1155L18.6581 107.439C18.53 107.867 18.6004 108.323 18.8538 108.706C19.1072 109.089 19.5228 109.368 20.0091 109.481C20.4955 109.594 21.0128 109.532 21.4473 109.308C21.8818 109.085 22.1978 108.719 22.3258 108.29L32.1701 79.7097H49.5405L59.3848 108.29C59.5128 108.719 59.8288 109.085 60.2633 109.308C60.6978 109.532 61.2151 109.594 61.7015 109.481C62.1878 109.368 62.6034 109.089 62.8568 108.706C63.1102 108.323 63.1806 107.867 63.0525 107.439L53.5979 79.7146H80.4257C80.7332 79.7254 81.0399 79.68 81.3266 79.5812C81.6132 79.4824 81.8735 79.3324 82.0911 79.1405C82.3087 78.9487 82.4789 78.7193 82.591 78.4667C82.7031 78.214 82.7547 77.9437 82.7424 77.6727C82.7334 77.1332 82.486 76.618 82.0529 76.2367C81.6198 75.8554 81.035 75.638 80.4229 75.6307L80.4215 75.6257Z" fill="white"/>
<path opacity="0.6" d="M127.901 58.7834C126.55 50.618 115.549 35.9869 113.426 34.9666C113.232 34.4564 102.038 28.3317 87.949 34.9666C87.9235 34.9661 87.8981 34.9701 87.8744 34.9785C87.8506 34.9869 87.8291 34.9994 87.811 35.0154C87.7929 35.0313 87.7787 35.0503 87.7692 35.0712C87.7597 35.0921 87.7551 35.1145 87.7556 35.1371C85.0535 36.3279 86.4046 38.1994 83.1306 41.6015C79.2709 45.678 73.0944 46.5341 66.9179 45.8546H66.339L67.3047 46.5353C67.6779 46.8004 67.9765 47.1379 68.1773 47.5214C68.3781 47.905 68.4757 48.3242 68.4624 48.7465C68.4694 49.5647 68.1244 50.3549 67.4967 50.9577C67.183 51.2732 66.7975 51.5271 66.3653 51.7028C65.9332 51.8786 65.4639 51.9724 64.988 51.9781H64.4092C64.9493 52.2751 65.5337 52.5042 66.1456 52.6588C67.6197 52.7969 69.1022 52.8538 70.5843 52.8292C78.8827 52.8292 85.2525 49.9373 88.1481 46.7045C88.1905 47.5512 87.9195 48.3872 87.3758 49.0862V66.4387C87.3599 67.1914 87.5436 67.9371 87.9122 68.6163C88.2808 69.2955 88.8242 69.8894 89.4991 70.3509L87.7585 100.974C87.6983 101.638 87.7926 102.305 88.0354 102.935C88.2782 103.565 88.6644 104.144 89.1704 104.638C89.6764 105.132 90.2916 105.53 90.9781 105.806C91.6646 106.083 92.408 106.233 93.1627 106.248H93.5495C95.0244 106.263 96.4491 105.776 97.5274 104.889C98.6056 104.002 99.2546 102.782 99.3392 101.485L101.076 71.7135L102.812 101.654C102.897 102.952 103.546 104.171 104.624 105.058C105.702 105.945 107.127 106.432 108.602 106.417H108.989C109.739 106.39 110.475 106.232 111.155 105.951C111.835 105.67 112.445 105.273 112.948 104.781C113.451 104.29 113.838 103.715 114.086 103.091C114.334 102.466 114.438 101.804 114.391 101.144L112.655 69.6715C114.778 67.2898 113.427 66.2694 113.813 47.216C116.708 51.4691 119.602 56.4018 120.181 59.9743C120.37 60.8613 120.932 61.6526 121.756 62.189C122.579 62.7255 123.602 62.9674 124.62 62.8662C125.64 62.6617 126.539 62.1328 127.145 61.3806C127.75 60.6285 128.02 59.706 127.902 58.7896L127.901 58.7834ZM103.776 35.9882L102.619 39.9004H98.759L97.4079 35.8239C97.4079 34.633 103.778 34.633 103.778 35.9944L103.776 35.9882ZM98.5641 41.7719H102.811L103.968 55.7223L100.693 59.4678L97.4121 55.7248L98.5641 41.7719Z" fill="white"/>
<path opacity="0.6" d="M111.689 20.5071C111.689 22.4251 111.044 24.2999 109.835 25.8946C108.626 27.4893 106.908 28.7323 104.897 29.4662C102.887 30.2002 100.675 30.3922 98.5406 30.018C96.4065 29.6439 94.4461 28.7203 92.9074 27.3641C91.3688 26.0079 90.321 24.2801 89.8965 22.399C89.4719 20.5179 89.6898 18.5681 90.5225 16.7962C91.3552 15.0243 92.7654 13.5098 94.5747 12.4442C96.3839 11.3787 98.511 10.8099 100.687 10.8099C103.605 10.8099 106.403 11.8316 108.467 13.6502C110.53 15.4688 111.689 17.9353 111.689 20.5071Z" fill="white"/>
<path opacity="0.6" d="M38.7314 25.441L61.1207 47.5532L62.6624 49.0837L63.628 49.9348C63.7825 50.0952 63.9747 50.2241 64.1913 50.3124C64.4079 50.4008 64.6437 50.4466 64.8823 50.4466C65.121 50.4466 65.3568 50.4008 65.5734 50.3124C65.79 50.2241 65.9823 50.0952 66.1367 49.9348C66.2834 49.8009 66.3942 49.6398 66.4611 49.4633C66.5281 49.2867 66.5494 49.0992 66.5236 48.9145C66.5294 48.7156 66.4796 48.5185 66.3787 48.3406C66.2777 48.1626 66.1287 48.0093 65.9447 47.8941L64.2082 46.5353L62.6666 45.3444L38.7314 25.441Z" fill="white"/>
<path opacity="0.6" d="M12.2895 66.7796C6.88527 68.4806 9.39398 72.2236 9.39398 72.2236H27.73C28.3089 66.7796 24.8345 66.7796 24.8345 66.7796H12.2895Z" fill="white"/>
</g>
</svg>
