<svg width="142" height="123" viewBox="0 0 142 123" fill="none" xmlns="http://www.w3.org/2000/svg">
<g opacity="0.6">
<g opacity="0.6">
<path opacity="0.6" d="M14.833 16.8545H92.4224C93.0368 16.8545 93.6261 16.6394 94.0605 16.2564C94.495 15.8735 94.7391 15.3541 94.7391 14.8125C94.7391 14.271 94.495 13.7516 94.0605 13.3687C93.6261 12.9857 93.0368 12.7706 92.4224 12.7706H14.833C14.2206 12.7776 13.6355 12.9954 13.2027 13.3773C12.7699 13.7593 12.5236 14.2752 12.5163 14.815C12.5045 15.0859 12.5563 15.3559 12.6686 15.6083C12.7809 15.8606 12.9511 16.0897 13.1687 16.2813C13.3863 16.4728 13.6464 16.6226 13.9329 16.7213C14.2193 16.8199 14.5257 16.8653 14.833 16.8545Z" fill="white"/>
<path opacity="0.6" d="M92.4213 87.6257H92.8081V65.1702C91.6504 65.5112 90.2994 65.8509 88.9483 66.1906V84.2262H18.3119V20.2591H88.9483V55.4742C90.8782 54.7936 91.265 54.1154 92.8081 53.7732V16.8546H14.4479V87.6257H14.8347C14.2223 87.6321 13.6369 87.8493 13.2036 88.2308C12.7702 88.6123 12.5232 89.1279 12.5152 89.6677C12.503 89.9388 12.5545 90.2091 12.6666 90.4617C12.7787 90.7144 12.9489 90.9438 13.1665 91.1356C13.3841 91.3274 13.6444 91.4774 13.9311 91.5762C14.2177 91.675 14.5244 91.7205 14.8319 91.7097H40.1153L30.6578 119.439C30.5298 119.867 30.6002 120.323 30.8536 120.706C31.1069 121.089 31.5225 121.368 32.0089 121.481C32.4953 121.594 33.0126 121.532 33.4471 121.308C33.8815 121.085 34.1975 120.719 34.3256 120.29L44.1699 91.7097H61.5403L71.3845 120.29C71.5126 120.719 71.8286 121.085 72.263 121.308C72.6975 121.532 73.2148 121.594 73.7012 121.481C74.1876 121.368 74.6032 121.089 74.8566 120.706C75.1099 120.323 75.1803 119.867 75.0523 119.439L65.5976 91.7146H92.4255C92.733 91.7254 93.0397 91.68 93.3263 91.5812C93.6129 91.4824 93.8732 91.3324 94.0909 91.1405C94.3085 90.9487 94.4787 90.7193 94.5908 90.4667C94.7029 90.214 94.7544 89.9437 94.7422 89.6727C94.7331 89.1332 94.4858 88.618 94.0526 88.2367C93.6195 87.8554 93.0348 87.638 92.4227 87.6307L92.4213 87.6257Z" fill="white"/>
<path opacity="0.6" d="M139.9 70.7834C138.549 62.618 127.549 47.9869 125.425 46.9666C125.232 46.4564 114.038 40.3317 99.9486 46.9666C99.923 46.9661 99.8976 46.9701 99.8739 46.9785C99.8502 46.9869 99.8286 46.9994 99.8105 47.0154C99.7925 47.0313 99.7782 47.0503 99.7687 47.0712C99.7592 47.0921 99.7546 47.1145 99.7551 47.1371C97.053 48.3279 98.4041 50.1994 95.1302 53.6015C91.2704 57.678 85.0939 58.5341 78.9174 57.8546H78.3386L79.3042 58.5353C79.6774 58.8004 79.976 59.1379 80.1768 59.5214C80.3776 59.905 80.4752 60.3242 80.4619 60.7465C80.4689 61.5647 80.1239 62.3549 79.4962 62.9577C79.1825 63.2732 78.797 63.5271 78.3649 63.7028C77.9327 63.8786 77.4634 63.9724 76.9875 63.9781H76.4087C76.9488 64.2751 77.5332 64.5042 78.1451 64.6588C79.6192 64.7969 81.1017 64.8538 82.5838 64.8292C90.8822 64.8292 97.252 61.9373 100.148 58.7045C100.19 59.5512 99.919 60.3872 99.3753 61.0862V78.4387C99.3594 79.1914 99.5431 79.9371 99.9117 80.6163C100.28 81.2955 100.824 81.8894 101.499 82.3509L99.758 112.974C99.6979 113.638 99.7921 114.305 100.035 114.935C100.278 115.565 100.664 116.144 101.17 116.638C101.676 117.132 102.291 117.53 102.978 117.806C103.664 118.083 104.407 118.233 105.162 118.248H105.549C107.024 118.263 108.449 117.776 109.527 116.889C110.605 116.002 111.254 114.782 111.339 113.485L113.075 83.7135L114.812 113.654C114.896 114.952 115.545 116.171 116.623 117.058C117.702 117.945 119.126 118.432 120.601 118.417H120.988C121.738 118.39 122.475 118.232 123.155 117.951C123.835 117.67 124.444 117.273 124.947 116.781C125.45 116.29 125.837 115.715 126.085 115.091C126.333 114.466 126.437 113.804 126.391 113.144L124.654 81.6715C126.778 79.2898 125.427 78.2694 125.812 59.216C128.708 63.4691 131.602 68.4018 132.181 71.9743C132.369 72.8613 132.932 73.6526 133.755 74.189C134.579 74.7255 135.602 74.9674 136.619 74.8662C137.64 74.6617 138.539 74.1328 139.144 73.3806C139.75 72.6285 140.019 71.706 139.902 70.7896L139.9 70.7834ZM115.776 47.9882L114.618 51.9004H110.758L109.407 47.8239C109.407 46.633 115.777 46.633 115.777 47.9944L115.776 47.9882ZM110.564 53.7719H114.81L115.968 67.7223L112.693 71.4678L109.412 67.7248L110.564 53.7719Z" fill="white"/>
<path opacity="0.6" d="M123.689 32.5071C123.689 34.4251 123.043 36.2999 121.835 37.8946C120.626 39.4893 118.907 40.7323 116.897 41.4662C114.887 42.2002 112.675 42.3922 110.54 42.018C108.406 41.6439 106.446 40.7203 104.907 39.3641C103.369 38.0079 102.321 36.2801 101.896 34.399C101.472 32.5179 101.69 30.5681 102.522 28.7962C103.355 27.0243 104.765 25.5098 106.574 24.4442C108.384 23.3787 110.511 22.8099 112.687 22.8099C115.605 22.8099 118.403 23.8316 120.466 25.6502C122.53 27.4688 123.689 29.9353 123.689 32.5071Z" fill="white"/>
<path opacity="0.6" d="M50.7312 37.441L73.1204 59.5532L74.6621 61.0837L75.6278 61.9348C75.7822 62.0952 75.9744 62.2241 76.191 62.3124C76.4076 62.4008 76.6434 62.4466 76.8821 62.4466C77.1208 62.4466 77.3566 62.4008 77.5732 62.3124C77.7898 62.2241 77.982 62.0952 78.1365 61.9348C78.2832 61.8009 78.394 61.6398 78.4609 61.4633C78.5278 61.2867 78.5492 61.0992 78.5233 60.9145C78.5291 60.7156 78.4794 60.5185 78.3784 60.3406C78.2775 60.1626 78.1285 60.0093 77.9444 59.8941L76.208 58.5353L74.6663 57.3444L50.7312 37.441Z" fill="white"/>
<path opacity="0.6" d="M24.2895 78.7796C18.8853 80.4806 21.394 84.2236 21.394 84.2236H39.73C40.3089 78.7796 36.8345 78.7796 36.8345 78.7796H24.2895Z" fill="white"/>
</g>
</g>
</svg>
