<svg width="151" height="130" viewBox="0 0 151 130" fill="none" xmlns="http://www.w3.org/2000/svg">
<g opacity="0.6">
<g opacity="0.6">
<path opacity="0.6" d="M109.824 95.8422L111.026 71.3418C102.608 68.85 101.406 59.299 101.406 51.6169C97.7536 50.9942 93.9954 50.9942 90.3429 51.6169C92.5077 60.5449 88.1782 68.2285 81.2036 71.1336L82.1645 93.9733C73.9878 107.054 66.2916 123.457 74.4683 130.516C75.5798 131.457 76.8958 132.198 78.3404 132.698C79.7851 133.197 81.33 133.445 82.8861 133.427C88.6587 133.427 94.6707 130.516 97.3159 129.483C99.0063 128.685 100.26 127.339 100.801 125.743C101.343 124.146 101.127 122.429 100.202 120.97C99.2773 119.511 97.7188 118.428 95.8695 117.961C94.0202 117.494 92.0316 117.68 90.3412 118.478C88.7096 119.265 87.02 119.959 85.2835 120.555C86.0051 115.986 90.3413 106.643 95.6249 98.7531C99.4739 108.719 105.486 129.068 102.6 140.695C102.394 141.499 102.374 142.331 102.541 143.142C102.708 143.953 103.058 144.727 103.572 145.422C104.086 146.116 104.753 146.716 105.535 147.187C106.317 147.659 107.199 147.993 108.131 148.17C109.063 148.347 110.026 148.365 110.965 148.221C111.905 148.076 112.802 147.774 113.606 147.331C114.41 146.887 115.105 146.311 115.652 145.636C116.198 144.961 116.585 144.199 116.79 143.395C120.639 128.444 113.418 106.02 110.056 96.2614C109.817 96.0532 109.817 96.0532 109.817 95.8451L109.824 95.8422Z" fill="white"/>
<path opacity="0.6" d="M108.622 37.4956C108.623 39.6312 107.89 41.7189 106.516 43.4948C105.142 45.2708 103.189 46.6551 100.904 47.4727C98.6191 48.2904 96.1045 48.5046 93.6783 48.0883C91.2521 47.672 89.0234 46.644 87.274 45.1341C85.5247 43.6243 84.3332 41.7004 83.8504 39.606C83.3676 37.5115 83.6151 35.3405 84.5615 33.3674C85.508 31.3944 87.1109 29.708 89.1676 28.5215C91.2243 27.335 93.6424 26.7017 96.116 26.7017C97.7585 26.7015 99.385 26.9806 100.902 27.5231C102.42 28.0656 103.799 28.8609 104.96 29.8635C106.122 30.8661 107.043 32.0564 107.672 33.3664C108.3 34.6765 108.624 36.0805 108.624 37.4985" fill="white"/>
<path opacity="0.6" d="M139.407 34.3824C138.439 33.689 137.198 33.3453 135.943 33.4228C134.689 33.5004 133.517 33.9933 132.673 34.7986C125.218 42.4822 108.383 52.2399 107.179 52.8628C105.977 52.6532 104.773 52.2384 103.571 52.0317C103.089 57.6383 104.773 66.5663 111.026 69.061C111.026 68.6448 111.508 59.7168 111.508 60.3397C114.395 59.3019 132.672 47.8821 140.129 40.3994C140.846 39.4823 141.168 38.3764 141.036 37.2755C140.904 36.1745 140.327 35.1487 139.407 34.378V34.3824Z" fill="white"/>
<path opacity="0.6" d="M80.724 60.5449L80.965 68.85C87.6986 65.3189 88.9007 58.676 87.6986 52.0317C86.4623 52.2834 85.2548 52.6307 84.0907 53.0695C83.8497 52.8613 66.0514 42.8955 58.3552 35.0053C57.873 34.589 57.3942 34.3823 56.912 33.9675L51.8542 41.2348C59.07 47.8806 78.0703 60.1316 80.7155 60.5449H80.724Z" fill="white"/>
<path opacity="0.6" d="M58.3564 28.7772C58.4125 28.7411 58.4581 28.6941 58.4895 28.64C58.521 28.5859 58.5373 28.5262 58.5373 28.4658C58.5373 28.4053 58.521 28.3456 58.4895 28.2915C58.4581 28.2374 58.4125 28.1905 58.3564 28.1543L47.5378 11.5441C47.2967 11.1279 46.5768 11.1279 46.0947 11.5441L37.4358 24.207C37.4358 24.4151 37.1947 24.6232 37.4358 24.8299L47.7772 42.063C48.0183 42.4793 48.7382 42.4793 49.2204 42.063L50.9063 39.5712L55.234 33.3417L58.3564 28.7772Z" fill="white"/>
</g>
</g>
</svg>
