<svg width="105" height="119" viewBox="0 0 105 119" fill="none" xmlns="http://www.w3.org/2000/svg">
<g opacity="0.6">
<path opacity="0.6" d="M72.824 84.8421L74.0261 60.3418C65.6083 57.85 64.4062 48.299 64.4062 40.6169C60.7538 39.9942 56.9956 39.9942 53.3432 40.6169C55.5079 49.5449 51.1785 57.2284 44.2038 60.1336L45.1648 82.9733C36.9881 96.0538 29.2918 112.457 37.4685 119.516C38.58 120.457 39.896 121.198 41.3407 121.698C42.7854 122.197 44.3302 122.445 45.8864 122.427C51.6589 122.427 57.6709 119.516 60.3161 118.483C62.0065 117.685 63.2603 116.339 63.8016 114.743C64.3429 113.146 64.1273 111.429 63.2024 109.97C62.2775 108.51 60.7191 107.428 58.8698 106.961C57.0205 106.493 55.0319 106.68 53.3415 107.478C51.7098 108.265 50.0203 108.959 48.2837 109.555C49.0053 104.986 53.3415 95.6434 58.6252 87.7531C62.4741 97.7189 68.4861 118.068 65.5998 129.695C65.3945 130.499 65.3747 131.331 65.5415 132.142C65.7084 132.953 66.0586 133.727 66.5723 134.422C67.0859 135.116 67.7529 135.716 68.5351 136.187C69.3174 136.659 70.1996 136.993 71.1313 137.17C72.0631 137.347 73.0262 137.365 73.9656 137.221C74.905 137.076 75.8023 136.774 76.6064 136.331C77.4105 135.887 78.1055 135.311 78.6518 134.636C79.198 133.961 79.5849 133.199 79.7902 132.395C83.6392 117.444 76.4184 95.0204 73.0566 85.2613C72.8172 85.0532 72.8172 85.0532 72.8172 84.845L72.824 84.8421Z" fill="white"/>
<path opacity="0.6" d="M71.6222 26.4956C71.6229 28.6312 70.89 30.7189 69.5162 32.4949C68.1424 34.2708 66.1894 35.6551 63.9043 36.4727C61.6191 37.2904 59.1045 37.5046 56.6783 37.0883C54.2521 36.6721 52.0234 35.644 50.274 34.1341C48.5247 32.6243 47.3332 30.7005 46.8504 28.606C46.3676 26.5115 46.6151 24.3405 47.5615 22.3674C48.508 20.3944 50.1109 18.708 52.1676 17.5215C54.2243 16.335 56.6424 15.7017 59.116 15.7017C60.7585 15.7015 62.3849 15.9806 63.9025 16.5231C65.42 17.0656 66.7989 17.8609 67.9603 18.8635C69.1218 19.8661 70.0432 21.0564 70.6718 22.3664C71.3004 23.6765 71.6239 25.0806 71.6239 26.4986" fill="white"/>
<path opacity="0.6" d="M102.407 23.3823C101.439 22.689 100.198 22.3452 98.9434 22.4228C97.6887 22.5003 96.5172 22.9932 95.6734 23.7986C88.2183 31.4822 71.3827 41.2398 70.1789 41.8628C68.9769 41.6532 67.7732 41.2384 66.5711 41.0317C66.0889 46.6383 67.7732 55.5663 74.0262 58.061C74.0262 57.6447 74.5084 48.7167 74.5084 49.3397C77.3947 48.3019 95.6718 36.8821 103.129 29.3994C103.846 28.4823 104.168 27.3764 104.036 26.2754C103.904 25.1745 103.327 24.1487 102.407 23.378V23.3823Z" fill="white"/>
<path opacity="0.6" d="M43.7237 49.5449L43.9648 57.85C50.6984 54.3189 51.9004 47.676 50.6984 41.0317C49.4621 41.2833 48.2546 41.6307 47.0905 42.0695C46.8494 41.8613 29.0511 31.8955 21.3549 24.0053C20.8727 23.589 20.3939 23.3823 19.9118 22.9675L14.854 30.2348C22.0697 36.8806 41.0701 49.1315 43.7153 49.5449H43.7237Z" fill="white"/>
<path opacity="0.6" d="M21.3564 17.7772C21.4125 17.7411 21.4581 17.6941 21.4895 17.64C21.521 17.5859 21.5373 17.5262 21.5373 17.4657C21.5373 17.4053 21.521 17.3456 21.4895 17.2915C21.4581 17.2374 21.4125 17.1905 21.3564 17.1543L10.5378 0.544138C10.2967 0.127866 9.57683 0.127866 9.09465 0.544138L0.435763 13.207C0.435763 13.4151 0.194676 13.6232 0.435763 13.8299L10.7772 31.063C11.0183 31.4793 11.7382 31.4793 12.2204 31.063L13.9063 28.5712L18.234 22.3417L21.3564 17.7772Z" fill="white"/>
</g>
</svg>
