<svg width="105" height="119" viewBox="0 0 105 119" fill="none" xmlns="http://www.w3.org/2000/svg">
<g opacity="0.6">
<path opacity="0.6" d="M72.8237 84.8422L74.0258 60.3418C65.608 57.85 64.406 48.299 64.406 40.6169C60.7536 39.9942 56.9954 39.9942 53.3429 40.6169C55.5077 49.5449 51.1782 57.2285 44.2036 60.1336L45.1645 82.9733C36.9878 96.0539 29.2916 112.457 37.4683 119.516C38.5798 120.457 39.8958 121.198 41.3404 121.698C42.7851 122.197 44.33 122.445 45.8861 122.427C51.6587 122.427 57.6707 119.516 60.3159 118.483C62.0063 117.685 63.26 116.339 63.8013 114.743C64.3426 113.146 64.1271 111.429 63.2022 109.97C62.2773 108.511 60.7188 107.428 58.8695 106.961C57.0202 106.494 55.0316 106.68 53.3412 107.478C51.7096 108.265 50.02 108.959 48.2835 109.555C49.0051 104.986 53.3413 95.6434 58.6249 87.7531C62.4739 97.7189 68.4859 118.068 65.5996 129.695C65.3942 130.499 65.3744 131.331 65.5413 132.142C65.7081 132.953 66.0584 133.727 66.572 134.422C67.0857 135.116 67.7527 135.716 68.5349 136.187C69.3172 136.659 70.1993 136.993 71.1311 137.17C72.0628 137.347 73.0259 137.365 73.9653 137.221C74.9047 137.076 75.8021 136.774 76.6062 136.331C77.4102 135.887 78.1052 135.311 78.6515 134.636C79.1978 133.961 79.5847 133.199 79.79 132.395C83.639 117.444 76.4181 95.0205 73.0564 85.2614C72.817 85.0532 72.817 85.0532 72.817 84.8451L72.8237 84.8422Z" fill="white"/>
<path opacity="0.6" d="M71.6222 26.4956C71.6229 28.6312 70.89 30.7189 69.5162 32.4948C68.1424 34.2708 66.1894 35.6551 63.9043 36.4727C61.6191 37.2904 59.1045 37.5046 56.6783 37.0883C54.2521 36.672 52.0234 35.644 50.274 34.1341C48.5247 32.6243 47.3332 30.7004 46.8504 28.606C46.3676 26.5115 46.6151 24.3405 47.5615 22.3674C48.508 20.3944 50.1109 18.708 52.1676 17.5215C54.2243 16.335 56.6424 15.7017 59.116 15.7017C60.7585 15.7015 62.3849 15.9806 63.9025 16.5231C65.42 17.0656 66.7989 17.8609 67.9603 18.8635C69.1218 19.8661 70.0432 21.0564 70.6718 22.3664C71.3004 23.6765 71.6239 25.0806 71.6239 26.4985" fill="white"/>
<path opacity="0.6" d="M102.407 23.3824C101.439 22.689 100.198 22.3453 98.9434 22.4228C97.6887 22.5004 96.5172 22.9933 95.6734 23.7986C88.2183 31.4822 71.3827 41.2399 70.1789 41.8628C68.9769 41.6532 67.7732 41.2384 66.5711 41.0317C66.0889 46.6383 67.7732 55.5663 74.0262 58.061C74.0262 57.6448 74.5084 48.7168 74.5084 49.3397C77.3947 48.3019 95.6718 36.8821 103.129 29.3994C103.846 28.4823 104.168 27.3764 104.036 26.2755C103.904 25.1745 103.327 24.1487 102.407 23.378V23.3824Z" fill="white"/>
<path opacity="0.6" d="M43.724 49.5449L43.965 57.85C50.6986 54.3189 51.9007 47.676 50.6986 41.0317C49.4623 41.2834 48.2548 41.6307 47.0907 42.0695C46.8497 41.8613 29.0514 31.8955 21.3552 24.0053C20.873 23.589 20.3942 23.3823 19.912 22.9675L14.8542 30.2348C22.07 36.8806 41.0703 49.1316 43.7155 49.5449H43.724Z" fill="white"/>
<path opacity="0.6" d="M21.3564 17.7772C21.4125 17.7411 21.4581 17.6941 21.4895 17.64C21.521 17.5859 21.5373 17.5262 21.5373 17.4657C21.5373 17.4053 21.521 17.3456 21.4895 17.2915C21.4581 17.2374 21.4125 17.1905 21.3564 17.1543L10.5378 0.544138C10.2967 0.127866 9.57683 0.127866 9.09465 0.544138L0.435763 13.207C0.435763 13.4151 0.194676 13.6232 0.435763 13.8299L10.7772 31.063C11.0183 31.4793 11.7382 31.4793 12.2204 31.063L13.9063 28.5712L18.234 22.3417L21.3564 17.7772Z" fill="white"/>
</g>
</svg>
