<svg width="24" height="28" viewBox="0 0 24 28" fill="none" xmlns="http://www.w3.org/2000/svg">
<path d="M19.955 19.705L12 27.66L4.04501 19.705C2.47168 18.1317 1.40023 16.1271 0.966161 13.9448C0.532088 11.7626 0.754884 9.50056 1.60637 7.4449C2.45786 5.38924 3.8998 3.63224 5.74985 2.39608C7.5999 1.15992 9.77497 0.500122 12 0.500122C14.225 0.500122 16.4001 1.15992 18.2502 2.39608C20.1002 3.63224 21.5421 5.38924 22.3936 7.4449C23.2451 9.50056 23.4679 11.7626 23.0338 13.9448C22.5998 16.1271 21.5283 18.1317 19.955 19.705V19.705ZM12 16.75C12.9889 16.75 13.9556 16.4568 14.7779 15.9074C15.6001 15.358 16.241 14.5771 16.6194 13.6634C16.9978 12.7498 17.0969 11.7445 16.9039 10.7746C16.711 9.80467 16.2348 8.91375 15.5355 8.21449C14.8363 7.51523 13.9454 7.03902 12.9755 6.8461C12.0056 6.65317 11.0002 6.75219 10.0866 7.13063C9.17296 7.50907 8.39206 8.14993 7.84266 8.97217C7.29325 9.79442 7 10.7611 7 11.75C7 13.0761 7.52679 14.3479 8.46447 15.2856C9.40215 16.2232 10.6739 16.75 12 16.75ZM12 14.25C11.5056 14.25 11.0222 14.1034 10.6111 13.8287C10.2 13.554 9.87952 13.1635 9.69031 12.7067C9.50109 12.2499 9.45158 11.7473 9.54804 11.2623C9.6445 10.7773 9.88261 10.3319 10.2322 9.98226C10.5819 9.63263 11.0273 9.39452 11.5123 9.29806C11.9972 9.2016 12.4999 9.25111 12.9567 9.44033C13.4135 9.62954 13.804 9.94998 14.0787 10.3611C14.3534 10.7722 14.5 11.2556 14.5 11.75C14.5 12.4131 14.2366 13.0489 13.7678 13.5178C13.2989 13.9866 12.663 14.25 12 14.25Z" fill="#FFC700"/>
</svg>
