<svg width="24" height="24" viewBox="0 0 24 24" fill="none" xmlns="http://www.w3.org/2000/svg">
<path d="M18.364 17.3639L12 23.7279L5.636 17.3639C4.37734 16.1052 3.52019 14.5016 3.17293 12.7558C2.82567 11.0099 3.00391 9.20035 3.6851 7.55582C4.36629 5.91129 5.51984 4.50569 6.99988 3.51677C8.47992 2.52784 10.22 2 12 2C13.78 2 15.5201 2.52784 17.0001 3.51677C18.4802 4.50569 19.6337 5.91129 20.3149 7.55582C20.9961 9.20035 21.1743 11.0099 20.8271 12.7558C20.4798 14.5016 19.6227 16.1052 18.364 17.3639ZM12 14.9999C12.7911 14.9999 13.5645 14.7653 14.2223 14.3258C14.8801 13.8863 15.3928 13.2616 15.6955 12.5307C15.9983 11.7998 16.0775 10.9955 15.9231 10.2196C15.7688 9.44364 15.3878 8.7309 14.8284 8.17149C14.269 7.61208 13.5563 7.23112 12.7804 7.07678C12.0044 6.92244 11.2002 7.00165 10.4693 7.3044C9.73837 7.60715 9.11365 8.11984 8.67413 8.77764C8.2346 9.43544 8 10.2088 8 10.9999C8 12.0608 8.42143 13.0782 9.17158 13.8283C9.92172 14.5785 10.9391 14.9999 12 14.9999ZM12 12.9999C11.6044 12.9999 11.2178 12.8826 10.8889 12.6629C10.56 12.4431 10.3036 12.1307 10.1522 11.7653C10.0009 11.3998 9.96126 10.9977 10.0384 10.6097C10.1156 10.2218 10.3061 9.86541 10.5858 9.58571C10.8655 9.306 11.2219 9.11552 11.6098 9.03835C11.9978 8.96118 12.3999 9.00079 12.7654 9.15216C13.1308 9.30354 13.4432 9.55988 13.6629 9.88878C13.8827 10.2177 14 10.6044 14 10.9999C14 11.5304 13.7893 12.0391 13.4142 12.4141C13.0391 12.7892 12.5304 12.9999 12 12.9999Z" fill="#FFC700"/>
</svg>
