<svg width="24" height="24" viewBox="0 0 24 24" fill="none" xmlns="http://www.w3.org/2000/svg">
<path d="M23.25 17.525V21.945C23.2508 22.2619 23.1312 22.5673 22.9153 22.7993C22.6995 23.0314 22.4036 23.1728 22.0875 23.195C21.5413 23.2325 21.095 23.2525 20.75 23.2525C18.1234 23.2525 15.5224 22.7351 13.0958 21.7299C10.6691 20.7246 8.46419 19.2512 6.60698 17.3938C4.74978 15.5363 3.27664 13.3312 2.27169 10.9044C1.26674 8.47764 0.749672 5.87666 0.75 3.25001C0.75 2.90501 0.769167 2.45917 0.8075 1.91251C0.829682 1.59638 0.971109 1.30048 1.20317 1.08466C1.43523 0.868849 1.7406 0.749231 2.0575 0.750008H6.475C6.63048 0.749229 6.78067 0.80643 6.89623 0.910441C7.0118 1.01445 7.08445 1.15781 7.1 1.31251C7.12875 1.60001 7.155 1.82876 7.18 2.00251C7.42797 3.73475 7.93621 5.41959 8.6875 7.00001C8.74562 7.12175 8.75867 7.26016 8.72434 7.39062C8.69 7.52108 8.61051 7.63514 8.5 7.71251L5.80625 9.64001C7.45557 13.4831 10.5182 16.5457 14.3612 18.195L16.2863 15.5025C16.3648 15.3931 16.4792 15.3146 16.6095 15.2806C16.7399 15.2466 16.878 15.2592 17 15.3163C18.5816 16.0652 20.2673 16.5709 22 16.8163C22.1737 16.8413 22.4025 16.8688 22.6875 16.8963C22.842 16.9121 22.985 16.9849 23.0888 17.1004C23.1925 17.216 23.2496 17.366 23.2488 17.5213L23.25 17.525Z" fill="#FFC700"/>
</svg>
