<svg width="141" height="141" viewBox="0 0 141 141" fill="none" xmlns="http://www.w3.org/2000/svg">
<g filter="url(#filter0_d_87_85)">
<path d="M111 20H30C24.4772 20 20 24.4772 20 30V111C20 116.523 24.4772 121 30 121H111C116.523 121 121 116.523 121 111V30C121 24.4772 116.523 20 111 20Z" fill="#FFC700"/>
</g>
<path d="M39.5488 41.7132H78.6708C78.8242 41.7132 78.976 41.683 79.1178 41.6243C79.2595 41.5656 79.3882 41.4796 79.4967 41.3711C79.6051 41.2626 79.6912 41.1339 79.7499 40.9922C79.8086 40.8505 79.8388 40.6986 79.8388 40.5452C79.8388 40.3918 79.8086 40.2399 79.7499 40.0982C79.6912 39.9565 79.6051 39.8278 79.4967 39.7193C79.3882 39.6108 79.2595 39.5248 79.1178 39.4661C78.976 39.4074 78.8242 39.3772 78.6708 39.3772H39.5488C39.2402 39.3811 38.9454 39.5054 38.7272 39.7236C38.509 39.9418 38.3847 40.2366 38.3808 40.5452C38.3746 40.7002 38.4006 40.8549 38.4571 40.9994C38.5136 41.1439 38.5994 41.2752 38.7091 41.3849C38.8188 41.4946 38.9501 41.5804 39.0946 41.6369C39.2391 41.6934 39.3937 41.7194 39.5488 41.7132Z" fill="#202439"/>
<path d="M78.6708 82.1972H78.8658V69.3522C78.2818 69.5472 77.6008 69.7412 76.9198 69.9362V80.2512H41.3008V43.6602H76.9188V63.8052C77.8918 63.4162 78.0868 63.0272 78.8648 62.8322V41.7122H39.3548V82.1982H39.5498C39.2409 82.2015 38.9456 82.3256 38.7269 82.5439C38.5083 82.7621 38.3837 83.0572 38.3798 83.3662C38.3736 83.5212 38.3996 83.6758 38.4561 83.8204C38.5126 83.9649 38.5984 84.0961 38.7081 84.2058C38.8178 84.3156 38.9491 84.4014 39.0936 84.4579C39.2381 84.5144 39.3928 84.5404 39.5478 84.5342H52.2978L47.5298 100.396C47.4652 100.641 47.5007 100.902 47.6284 101.121C47.7561 101.34 47.9656 101.5 48.2108 101.564C48.456 101.629 48.7168 101.593 48.9358 101.466C49.1549 101.338 49.3142 101.128 49.3788 100.883L54.3418 84.5342H63.1008L68.0638 100.883C68.1284 101.128 68.2877 101.338 68.5068 101.466C68.7258 101.593 68.9866 101.629 69.2318 101.564C69.477 101.5 69.6865 101.34 69.8142 101.121C69.9419 100.902 69.9774 100.641 69.9128 100.396L65.1448 84.5332H78.6718C78.8268 84.5394 78.9815 84.5134 79.126 84.4569C79.2705 84.4004 79.4018 84.3146 79.5115 84.2048C79.6212 84.0951 79.707 83.9639 79.7635 83.8194C79.82 83.6749 79.846 83.5202 79.8398 83.3652C79.8352 83.0567 79.7105 82.7621 79.4922 82.544C79.2739 82.326 78.9793 82.2015 78.6708 82.1972Z" fill="#202439"/>
<path d="M102.611 72.5622C101.93 67.8912 96.3828 59.5222 95.3108 58.9382C95.2108 58.6462 89.5698 55.1382 82.4648 58.9382C82.4383 58.9382 82.4129 58.9487 82.3941 58.9674C82.3754 58.9862 82.3648 59.0116 82.3648 59.0382C81.0028 59.7192 81.6838 60.7892 80.0298 62.7382C78.0838 65.0732 74.9688 65.5602 71.8558 65.1712H71.5638L72.0508 65.5602C72.239 65.7118 72.3897 65.9049 72.491 66.1243C72.5923 66.3437 72.6415 66.5836 72.6348 66.8252C72.6384 67.2933 72.4644 67.7453 72.1478 68.0902C71.9897 68.2707 71.7953 68.416 71.5774 68.5166C71.3595 68.6172 71.1228 68.6709 70.8828 68.6742H70.5908C70.8633 68.844 71.1581 68.9749 71.4668 69.0632C72.21 69.143 72.9575 69.1764 73.7048 69.1632C77.8888 69.1632 81.1048 67.5082 82.5608 65.6632C82.5823 66.1473 82.4458 66.6253 82.1718 67.0252V76.9522C82.1639 77.3828 82.2565 77.8094 82.4424 78.1979C82.6284 78.5865 82.9024 78.9262 83.2428 79.1902L82.3668 96.7072C82.3372 97.0865 82.3853 97.4678 82.508 97.8279C82.6307 98.1881 82.8254 98.5194 83.0804 98.8017C83.3355 99.0841 83.6453 99.3115 83.9911 99.4701C84.337 99.6287 84.7115 99.7151 85.0918 99.7242H85.2868C86.0305 99.7326 86.7488 99.4541 87.2924 98.9466C87.836 98.4391 88.1632 97.7416 88.2058 96.9992L89.0818 79.9692L89.9568 97.0972C89.9995 97.8396 90.3266 98.5371 90.8703 99.0446C91.4139 99.5521 92.1322 99.8306 92.8758 99.8222H93.0708C93.4492 99.807 93.8207 99.7165 94.1637 99.5559C94.5066 99.3952 94.814 99.1677 95.0678 98.8867C95.3216 98.6057 95.5168 98.2768 95.6418 97.9194C95.7668 97.5619 95.8192 97.1831 95.7958 96.8052L94.9198 78.8052C95.9908 77.4432 95.3088 76.8592 95.5038 65.9592C96.9638 68.3922 98.4238 71.2142 98.7148 73.2592C98.8096 73.7668 99.0932 74.2197 99.5084 74.5268C99.9236 74.8338 100.44 74.9722 100.953 74.9142C101.468 74.7971 101.922 74.4941 102.227 74.0632C102.532 73.6323 102.668 73.1039 102.608 72.5792L102.611 72.5622ZM90.4458 59.5222L89.8618 61.7602H87.9158L87.2348 59.4242C87.2348 58.7432 90.4468 58.7432 90.4468 59.5242L90.4458 59.5222ZM87.8178 62.8312H89.9588L90.5428 70.8112L88.8878 72.9522L87.2328 70.8112L87.8178 62.8312Z" fill="#202439"/>
<path d="M94.4348 50.6661C94.4348 51.7632 94.1095 52.8357 93.5 53.7479C92.8905 54.6601 92.0242 55.3711 91.0106 55.7909C89.997 56.2107 88.8817 56.3206 87.8056 56.1066C86.7296 55.8925 85.7413 55.3642 84.9655 54.5885C84.1897 53.8127 83.6614 52.8243 83.4474 51.7483C83.2334 50.6723 83.3432 49.557 83.7631 48.5434C84.1829 47.5298 84.8939 46.6635 85.8061 46.054C86.7183 45.4445 87.7907 45.1191 88.8878 45.1191C90.359 45.1191 91.7699 45.7036 92.8102 46.7438C93.8504 47.7841 94.4348 49.195 94.4348 50.6661Z" fill="#202439"/>
<path d="M57.6499 53.4882L68.9389 66.1392L69.7169 67.0152L70.2039 67.5022C70.2818 67.5939 70.3788 67.6675 70.488 67.718C70.5972 67.7685 70.7161 67.7947 70.8364 67.7947C70.9567 67.7947 71.0756 67.7685 71.1848 67.718C71.2941 67.6675 71.391 67.5939 71.4689 67.5022C71.5429 67.4255 71.5987 67.3333 71.6325 67.2322C71.6662 67.1312 71.677 67.0239 71.6639 66.9182C71.6669 66.8043 71.6418 66.6915 71.5909 66.5897C71.54 66.4878 71.4648 66.4001 71.3719 66.3342L70.4959 65.5562L69.7179 64.8752L57.6499 53.4882Z" fill="#202439"/>
<path d="M44.3167 77.1362C41.5917 78.1092 42.8567 80.2502 42.8567 80.2502H52.1017C52.3937 77.1362 50.6417 77.1362 50.6417 77.1362H44.3167Z" fill="#202439"/>
<defs>
<filter id="filter0_d_87_85" x="0" y="0" width="141" height="141" filterUnits="userSpaceOnUse" color-interpolation-filters="sRGB">
<feFlood flood-opacity="0" result="BackgroundImageFix"/>
<feColorMatrix in="SourceAlpha" type="matrix" values="0 0 0 0 0 0 0 0 0 0 0 0 0 0 0 0 0 0 127 0" result="hardAlpha"/>
<feOffset/>
<feGaussianBlur stdDeviation="10"/>
<feColorMatrix type="matrix" values="0 0 0 0 0 0 0 0 0 0 0 0 0 0 0 0 0 0 0.184 0"/>
<feBlend mode="normal" in2="BackgroundImageFix" result="effect1_dropShadow_87_85"/>
<feBlend mode="normal" in="SourceGraphic" in2="effect1_dropShadow_87_85" result="shape"/>
</filter>
</defs>
</svg>
