<svg width="141" height="141" viewBox="0 0 141 141" fill="none" xmlns="http://www.w3.org/2000/svg">
<g filter="url(#filter0_d_87_86)">
<path d="M111 20H30C24.4772 20 20 24.4772 20 30V111C20 116.523 24.4772 121 30 121H111C116.523 121 121 116.523 121 111V30C121 24.4772 116.523 20 111 20Z" fill="#FFC700"/>
</g>
<path d="M67.8889 56.356C74.8498 52.3619 80.0907 45.9381 82.6059 38.317C82.7048 38.0485 82.7489 37.7628 82.7354 37.477C82.7219 37.1911 82.6511 36.9109 82.5272 36.653C82.4034 36.395 82.229 36.1645 82.0143 35.9752C81.7997 35.7859 81.5493 35.6417 81.2779 35.551C80.72 35.3503 80.1056 35.3771 79.5673 35.6256C79.029 35.8741 78.6101 36.3243 78.4009 36.879C76.2435 43.4118 71.8063 48.9494 65.9009 52.479C66.9453 53.5355 67.6406 54.8869 67.8929 56.351L67.8889 56.356Z" fill="#202439"/>
<path d="M67.4466 42.414C67.4466 43.8804 67.0118 45.3139 66.1971 46.5331C65.3824 47.7523 64.2244 48.7026 62.8696 49.2637C61.5148 49.8249 60.0241 49.9716 58.5859 49.6855C57.1477 49.3993 55.8266 48.6931 54.7898 47.6561C53.753 46.6192 53.047 45.298 52.761 43.8598C52.475 42.4215 52.622 40.9308 53.1833 39.5761C53.7446 38.2214 54.695 37.0635 55.9144 36.249C57.1337 35.4345 58.5673 34.9998 60.0337 35C61.0072 35 61.9713 35.1918 62.8707 35.5644C63.7702 35.937 64.5874 36.4831 65.2758 37.1716C65.9642 37.86 66.5102 38.6774 66.8827 39.5769C67.2551 40.4764 67.4468 41.4404 67.4466 42.414Z" fill="#202439"/>
<path d="M60.6968 82.913H67.6678V80.7H56.1598C55.7168 80.589 53.0598 80.7 51.5118 79.262C51.191 78.9839 50.9281 78.6453 50.7381 78.2656C50.5482 77.8859 50.4349 77.4725 50.4048 77.049C50.4048 76.938 48.9668 68.528 49.0768 68.972L49.7408 68.64C50.4048 68.197 50.1838 66.98 50.1838 66.98L48.8558 60.894C48.1918 59.123 45.5358 59.677 45.5358 59.677C43.6548 60.12 44.3188 62.443 44.3188 62.443C43.9906 63.0531 43.9111 63.7665 44.0968 64.434L45.5358 71.516C45.8678 72.401 46.3108 71.294 46.3108 71.294C46.464 70.9843 46.6923 70.7179 46.9748 70.519L48.0818 77.269C48.1559 78.6515 48.7486 79.9553 49.7418 80.92C52.6188 83.686 57.2658 82.911 58.3728 83.02V98.733H53.2828V100.946H65.3438V98.733H60.8068V82.913H60.6968Z" fill="#202439"/>
<path d="M93.786 66.4251L96.442 66.0931L97.88 65.6501L97.6591 64.4331L92.9011 59.3431L91.13 59.5651L80.95 61.0031C80.8336 61.4363 80.6468 61.8475 80.397 62.2201L89.2491 60.8921C89.6911 61.0031 89.691 61.5561 89.691 61.5561C90.244 61.5561 90.355 62.5561 90.355 62.5561C90.4761 63.0043 90.7503 63.396 91.13 63.6631V64.9881C91.019 64.9881 79.29 66.7591 79.401 66.7591V65.5421C79.0215 65.2748 78.7474 64.8832 78.6261 64.4351C78.6269 64.1954 78.5489 63.9621 78.4041 63.7711C75.5335 65.1812 72.4121 66.0088 69.22 66.2061C69.109 66.3171 66.675 68.1971 66.785 68.0871C66.785 67.4231 66.896 66.7591 66.896 66.2061C64.5144 66.0643 62.2381 65.1753 60.3907 63.6655C58.5434 62.1557 57.2191 60.1018 56.606 57.7961C56.4154 56.9358 56.5708 56.035 57.0387 55.2884C57.5067 54.5417 58.2496 54.0091 59.107 53.8057C59.9643 53.6022 60.8673 53.7443 61.6208 54.2011C62.3744 54.6579 62.9179 55.3928 63.134 56.2471C63.3905 57.0847 63.8808 57.8316 64.5472 58.4001C65.2136 58.9685 66.0285 59.3349 66.896 59.4561C66.896 59.2341 66.785 57.3561 66.785 57.2431C66.5796 55.4969 65.689 53.9039 64.309 52.8144C62.929 51.7249 61.1727 51.2282 59.4265 51.4336C57.6804 51.639 56.0873 52.5297 54.9978 53.9097C53.9083 55.2896 53.4116 57.0459 53.617 58.7921C53.9093 63.5971 53.6867 68.4195 52.953 73.1771C52.6901 74.813 53.0576 76.4877 53.9814 77.8632C54.9051 79.2387 56.3163 80.2125 57.9301 80.5881C59.0371 81.1411 59.811 80.8101 63.13 80.9201H69.769L66.6691 94.7521C66.4859 95.6173 66.6501 96.5197 67.1261 97.265C67.6022 98.0103 68.3521 98.5386 69.214 98.7361C69.6429 98.8341 70.0871 98.8459 70.5205 98.7707C70.954 98.6954 71.3682 98.5347 71.739 98.2979C72.1097 98.061 72.4297 97.7528 72.6802 97.3911C72.9307 97.0294 73.1067 96.6215 73.198 96.1911L77.2921 78.0441C77.4024 77.5582 77.4031 77.0539 77.294 76.5677C77.1849 76.0816 76.9688 75.6258 76.6615 75.2337C76.3541 74.8416 75.9632 74.5229 75.5172 74.3008C75.0711 74.0788 74.5812 73.959 74.0831 73.9501H66.3371C66.6192 72.1913 66.8038 70.4183 66.89 68.6391L67.0011 69.1921C68.3291 69.9671 73.9721 68.9701 74.0831 68.9701L80.6111 68.0851V103.605H67.668V105.818H96.548V103.605H93.786V66.4251ZM82.7211 67.8641C82.8321 67.8641 91.6841 66.6471 91.5731 66.6471V103.605H82.7211V67.8641Z" fill="#202439"/>
<path d="M76.8517 58.016C71.2087 60.672 63.7947 62.11 62.1347 56.135C62.0711 55.8506 61.9516 55.5817 61.7832 55.3439C61.6148 55.1061 61.4009 54.9041 61.1538 54.7497C60.9067 54.5952 60.6314 54.4914 60.3438 54.4443C60.0563 54.3971 59.7622 54.4076 59.4787 54.475C59.1889 54.5282 58.9133 54.6412 58.6696 54.8069C58.4258 54.9725 58.2193 55.1871 58.0631 55.437C57.9069 55.6869 57.8045 55.9666 57.7625 56.2582C57.7204 56.5499 57.7395 56.8471 57.8187 57.131C59.4787 63.106 65.8957 67.531 77.7367 62.442H77.8477C78.8477 61.999 79.5077 61.778 79.8387 61.004C80.0306 60.5858 80.0898 60.119 80.0085 59.6662C79.9272 59.2134 79.7092 58.7963 79.3838 58.471C79.0585 58.1458 78.6413 57.9279 78.1885 57.8467C77.7356 57.7656 77.2688 57.825 76.8507 58.017L76.8517 58.016Z" fill="#202439"/>
<defs>
<filter id="filter0_d_87_86" x="0" y="0" width="141" height="141" filterUnits="userSpaceOnUse" color-interpolation-filters="sRGB">
<feFlood flood-opacity="0" result="BackgroundImageFix"/>
<feColorMatrix in="SourceAlpha" type="matrix" values="0 0 0 0 0 0 0 0 0 0 0 0 0 0 0 0 0 0 127 0" result="hardAlpha"/>
<feOffset/>
<feGaussianBlur stdDeviation="10"/>
<feColorMatrix type="matrix" values="0 0 0 0 0 0 0 0 0 0 0 0 0 0 0 0 0 0 0.184 0"/>
<feBlend mode="normal" in2="BackgroundImageFix" result="effect1_dropShadow_87_86"/>
<feBlend mode="normal" in="SourceGraphic" in2="effect1_dropShadow_87_86" result="shape"/>
</filter>
</defs>
</svg>
