<svg width="141" height="141" viewBox="0 0 141 141" fill="none" xmlns="http://www.w3.org/2000/svg">
<g filter="url(#filter0_d_87_88)">
<path d="M111 20H30C24.4772 20 20 24.4772 20 30V111C20 116.523 24.4772 121 30 121H111C116.523 121 121 116.523 121 111V30C121 24.4772 116.523 20 111 20Z" fill="#FFC700"/>
</g>
<path d="M55.8412 55.4391C56.2231 55.2279 56.6443 55.0975 57.0787 55.056C57.5131 55.0144 57.9513 55.0625 58.3664 55.1973C58.7814 55.3322 59.1642 55.5508 59.4912 55.8398C59.8182 56.1287 60.0823 56.4818 60.2672 56.8771L60.4892 57.3201V36.9591C60.4917 36.8566 60.4733 36.7547 60.4352 36.6596C60.3972 36.5644 60.3402 36.478 60.2677 36.4056C60.1953 36.3331 60.1088 36.2761 60.0137 36.238C59.9186 36.2 59.8167 36.1816 59.7142 36.1841H44.7752C44.6728 36.1816 44.5709 36.2 44.4757 36.238C44.3806 36.2761 44.2942 36.3331 44.2217 36.4056C44.1493 36.478 44.0923 36.5644 44.0542 36.6596C44.0161 36.7547 43.9978 36.8566 44.0002 36.9591V58.8691C43.9978 58.9715 44.0161 59.0734 44.0542 59.1685C44.0923 59.2637 44.1493 59.3501 44.2217 59.4226C44.2942 59.495 44.3806 59.552 44.4757 59.5901C44.5709 59.6282 44.6728 59.6465 44.7752 59.6441H54.2912C53.9728 58.8769 53.9554 58.0178 54.2425 57.2383C54.5297 56.4589 55.1002 55.8164 55.8402 55.4391H55.8412ZM46.1062 38.0661H58.3862C58.471 38.0707 58.5508 38.1077 58.6091 38.1693C58.6675 38.231 58.7 38.3127 58.7 38.3976C58.7 38.4825 58.6675 38.5641 58.6091 38.6258C58.5508 38.6874 58.471 38.7244 58.3862 38.7291H46.1062C46.0198 38.7241 45.9382 38.6875 45.877 38.6263C45.8158 38.565 45.7792 38.4835 45.7742 38.3971C45.7679 38.352 45.7721 38.3061 45.7866 38.2629C45.801 38.2197 45.8253 38.1805 45.8575 38.1483C45.8897 38.1161 45.9289 38.0919 45.9721 38.0774C46.0152 38.063 46.0611 38.0587 46.1062 38.0651V38.0661ZM46.1062 40.7221H58.3862C58.4726 40.7271 58.5542 40.7637 58.6154 40.8249C58.6766 40.8861 58.7132 40.9676 58.7182 41.0541C58.7248 41.0992 58.7207 41.1452 58.7063 41.1885C58.6919 41.2317 58.6677 41.271 58.6354 41.3033C58.6032 41.3355 58.5639 41.3598 58.5206 41.3741C58.4774 41.3885 58.4313 41.3926 58.3862 41.3861H46.1062C46.0198 41.3811 45.9382 41.3445 45.877 41.2833C45.8158 41.222 45.7792 41.1405 45.7742 41.0541C45.7677 41.0089 45.7718 40.9629 45.7861 40.9197C45.8005 40.8764 45.8248 40.8371 45.857 40.8048C45.8892 40.7726 45.9286 40.7483 45.9718 40.734C46.0151 40.7196 46.0611 40.7155 46.1062 40.7221V40.7221ZM46.1062 43.4881H58.3862C58.471 43.4927 58.5508 43.5297 58.6091 43.5913C58.6675 43.653 58.7 43.7347 58.7 43.8196C58.7 43.9045 58.6675 43.9861 58.6091 44.0478C58.5508 44.1094 58.471 44.1464 58.3862 44.1511H46.1062C46.0198 44.1461 45.9382 44.1095 45.877 44.0483C45.8158 43.987 45.7792 43.9055 45.7742 43.8191C45.768 43.7741 45.7724 43.7283 45.7869 43.6853C45.8014 43.6423 45.8257 43.6033 45.8579 43.5713C45.8901 43.5393 45.9293 43.5152 45.9724 43.5009C46.0155 43.4867 46.0613 43.4826 46.1062 43.4891V43.4881ZM46.1062 46.1441H58.3862C58.471 46.1487 58.5508 46.1857 58.6091 46.2473C58.6675 46.309 58.7 46.3907 58.7 46.4756C58.7 46.5605 58.6675 46.6421 58.6091 46.7038C58.5508 46.7654 58.471 46.8024 58.3862 46.8071H46.1062C46.0198 46.8021 45.9382 46.7655 45.877 46.7043C45.8158 46.643 45.7792 46.5615 45.7742 46.4751C45.7681 46.4301 45.7724 46.3842 45.7869 46.3412C45.8015 46.2982 45.8258 46.2591 45.8579 46.227C45.8901 46.195 45.9292 46.1708 45.9723 46.1564C46.0154 46.142 46.0612 46.1378 46.1062 46.1441V46.1441ZM49.3152 54.7751V57.9841L48.3152 57.0991L47.4302 57.9841V54.7751C47.1584 54.6187 46.9332 54.3929 46.7776 54.1206C46.6221 53.8484 46.5418 53.5396 46.5452 53.2261C46.5452 52.7271 46.7435 52.2485 47.0963 51.8956C47.4492 51.5428 47.9277 51.3446 48.4267 51.3446C48.9257 51.3446 49.4043 51.5428 49.7571 51.8956C50.11 52.2485 50.3082 52.7271 50.3082 53.2261C50.2666 53.5422 50.1554 53.8451 49.9824 54.113C49.8095 54.3809 49.5792 54.607 49.3082 54.7751H49.3152ZM46.1062 49.3531C46.0215 49.3484 45.9417 49.3114 45.8833 49.2498C45.825 49.1881 45.7924 49.1065 45.7924 49.0216C45.7924 48.9367 45.825 48.855 45.8833 48.7933C45.9417 48.7317 46.0215 48.6947 46.1062 48.6901H58.3862C58.471 48.6947 58.5508 48.7317 58.6091 48.7933C58.6675 48.855 58.7 48.9367 58.7 49.0216C58.7 49.1065 58.6675 49.1881 58.6091 49.2498C58.5508 49.3114 58.471 49.3484 58.3862 49.3531H46.1062Z" fill="#202439"/>
<path d="M48.3163 51.897C48.14 51.8902 47.9643 51.9198 47.8 51.9841C47.6358 52.0484 47.4866 52.146 47.3619 52.2707C47.2372 52.3954 47.1396 52.5446 47.0753 52.7088C47.011 52.8731 46.9814 53.0488 46.9883 53.225C46.9796 53.552 47.0987 53.8695 47.3203 54.1101C47.4487 54.2472 47.6034 54.3571 47.7752 54.4332C47.947 54.5093 48.1324 54.5501 48.3203 54.553C48.5113 54.575 48.7048 54.5455 48.8806 54.4676C49.0564 54.3898 49.2082 54.2663 49.3203 54.1101C49.542 53.8695 49.6611 53.552 49.6523 53.225C49.6596 53.048 49.6299 52.8714 49.5652 52.7065C49.5006 52.5415 49.4023 52.3918 49.2766 52.2669C49.151 52.142 49.0007 52.0447 48.8354 51.981C48.67 51.9173 48.4933 51.8887 48.3163 51.897V51.897Z" fill="#202439"/>
<path d="M83.3932 54.4399C81.4117 53.0999 79.1178 52.2939 76.7335 52.1C74.3493 51.9061 71.9553 52.3308 69.7832 53.3329C68.688 53.8077 67.6485 54.4016 66.6833 55.1039C66.3513 55.2149 60.9292 59.973 60.8192 60.194C60.7082 60.083 59.2703 57.2059 59.3813 57.4279C59.1171 56.8996 58.6539 56.4979 58.0935 56.3111C57.5332 56.1243 56.9216 56.1678 56.3932 56.4319C55.8649 56.6961 55.4632 57.1593 55.2764 57.7197C55.0896 58.28 55.1331 58.8916 55.3972 59.4199L55.5082 59.6419L58.1642 64.7319C58.3187 65.0305 58.5387 65.2903 58.8079 65.4917C59.0771 65.6931 59.3884 65.8309 59.7184 65.8948C60.0485 65.9587 60.3887 65.947 60.7136 65.8606C61.0384 65.7742 61.3395 65.6153 61.5942 65.3959C61.7052 65.2849 67.2372 60.5269 66.9052 60.7479L67.7902 77.5669C67.7966 77.9094 67.8793 78.2461 68.0324 78.5525C68.1856 78.8589 68.4051 79.1273 68.6752 79.3379C67.4582 86.0879 67.1263 91.7309 68.1223 101.801C68.2102 102.681 68.6442 103.491 69.3289 104.051C70.0136 104.611 70.8929 104.877 71.7733 104.789C72.6536 104.701 73.463 104.267 74.0234 103.582C74.5838 102.898 74.8491 102.018 74.7612 101.138C73.7612 91.401 74.0972 86.4209 75.3142 79.8929H75.9782C77.0852 85.9789 77.4162 90.847 76.3102 101.138C76.2223 102.018 76.4877 102.898 77.0481 103.582C77.6085 104.267 78.4179 104.701 79.2982 104.789C80.1786 104.877 81.0579 104.611 81.7426 104.051C82.4273 103.491 82.8613 102.681 82.9492 101.801C83.9492 92.0639 83.9492 86.4199 82.6172 79.1169C83.0476 78.6615 83.3194 78.0793 83.3922 77.457L84.1672 63.0719C85.5207 67.3633 85.8242 71.9169 85.0522 76.3499C84.9749 76.9319 85.1294 77.521 85.4824 77.9902C85.8354 78.4593 86.3586 78.771 86.9392 78.858C87.5198 78.9449 88.1114 78.8003 88.5864 78.4551C89.0613 78.11 89.3816 77.5921 89.4782 77.013C90.3622 70.152 89.2562 57.9789 83.3922 54.4399H83.3932ZM75.5363 68.8249L73.4362 66.6119L74.2112 58.0909H76.9763L77.7512 66.6119L75.5363 68.8249ZM77.6362 54.4399L76.7512 56.8739H74.3162L73.4312 54.4399C73.4312 53.7759 77.6313 53.7759 77.6313 54.4399H77.6362Z" fill="#202439"/>
<path d="M82.4804 44.238C82.4804 45.5458 82.0925 46.8242 81.366 47.9116C80.6394 48.9989 79.6067 49.8464 78.3984 50.3468C77.1902 50.8472 75.8607 50.9781 74.5781 50.7229C73.2954 50.4677 72.1173 49.8379 71.1926 48.9131C70.268 47.9883 69.6383 46.81 69.3833 45.5274C69.1283 44.2447 69.2594 42.9152 69.76 41.707C70.2606 40.4989 71.1082 39.4663 72.1957 38.7399C73.2831 38.0135 74.5616 37.6258 75.8694 37.626C77.623 37.626 79.3048 38.3227 80.5447 39.5626C81.7847 40.8026 82.4814 42.4844 82.4814 44.238" fill="#202439"/>
<defs>
<filter id="filter0_d_87_88" x="0" y="0" width="141" height="141" filterUnits="userSpaceOnUse" color-interpolation-filters="sRGB">
<feFlood flood-opacity="0" result="BackgroundImageFix"/>
<feColorMatrix in="SourceAlpha" type="matrix" values="0 0 0 0 0 0 0 0 0 0 0 0 0 0 0 0 0 0 127 0" result="hardAlpha"/>
<feOffset/>
<feGaussianBlur stdDeviation="10"/>
<feColorMatrix type="matrix" values="0 0 0 0 0 0 0 0 0 0 0 0 0 0 0 0 0 0 0.184 0"/>
<feBlend mode="normal" in2="BackgroundImageFix" result="effect1_dropShadow_87_88"/>
<feBlend mode="normal" in="SourceGraphic" in2="effect1_dropShadow_87_88" result="shape"/>
</filter>
</defs>
</svg>
