<svg width="141" height="141" viewBox="0 0 141 141" fill="none" xmlns="http://www.w3.org/2000/svg">
<g filter="url(#filter0_d_87_87)">
<path d="M111 20H30C24.4772 20 20 24.4772 20 30V111C20 116.523 24.4772 121 30 121H111C116.523 121 121 116.523 121 111V30C121 24.4772 116.523 20 111 20Z" fill="#FFC700"/>
</g>
<path d="M89.1289 66.8679V64.6549H84.1499C84.2885 65.384 84.3259 66.1287 84.2609 66.8679H89.1289Z" fill="#202439"/>
<path d="M52.6138 66.8679H57.4828C57.4745 66.1287 57.5116 65.3896 57.5938 64.6549H52.6138V66.8679Z" fill="#202439"/>
<path d="M100.198 34.9999H41.438C41.0588 35.0069 40.697 35.1606 40.4288 35.4288C40.1607 35.697 40.0069 36.0587 40 36.4379V65.4289C40.0067 65.8082 40.1603 66.1701 40.4286 66.4384C40.6968 66.7066 41.0587 66.8603 41.438 66.8669H49.298V64.6539H42.216V37.2129H99.534V64.6539H92.563V66.8669H100.309C100.688 66.8603 101.05 66.7066 101.318 66.4384C101.587 66.1701 101.74 65.8082 101.747 65.4289V36.4379C101.74 36.2417 101.695 36.0487 101.613 35.87C101.531 35.6914 101.415 35.5307 101.271 35.3971C101.127 35.2634 100.958 35.1596 100.774 35.0914C100.59 35.0233 100.394 34.9922 100.198 34.9999Z" fill="#202439"/>
<path d="M58.5908 66.0939V71.6269H62.7908C62.9018 69.8559 62.4588 68.5269 63.3438 68.5269C63.4176 68.5225 63.4914 68.5339 63.5605 68.5601C63.6296 68.5864 63.6923 68.6269 63.7445 68.6792C63.7968 68.7314 63.8374 68.7942 63.8636 68.8632C63.8899 68.9323 63.9012 69.0061 63.8968 69.0799V71.6249H77.9498V69.0799C77.9498 68.9331 78.0081 68.7923 78.1119 68.6885C78.2157 68.5847 78.3565 68.5264 78.5033 68.5264C78.6501 68.5264 78.7909 68.5847 78.8947 68.6885C78.9985 68.7923 79.0568 68.9331 79.0568 69.0799V71.6249H83.2568V66.0919C83.2794 65.6098 83.2421 65.1268 83.1458 64.6539C82.8299 63.1361 82.016 61.7673 80.8333 60.7648C79.6506 59.7624 78.1669 59.1838 76.6178 59.1209L72.4178 63.3209L72.1958 61.9929L72.0848 60.8859H69.9848L69.8738 61.9929L69.6528 63.4309L65.4528 59.2309C64.5505 59.226 63.6561 59.4001 62.8216 59.7432C61.987 60.0863 61.2288 60.5915 60.5908 61.2296C59.9528 61.8677 59.4477 62.626 59.1047 63.4606C58.7618 64.2952 58.5878 65.1896 58.5928 66.0919L58.5908 66.0939Z" fill="#202439"/>
<path d="M77.6222 51.155C77.6113 49.8308 77.2079 48.5397 76.4632 47.4448C75.7185 46.3499 74.6658 45.5005 73.4382 45.0039C72.2107 44.5072 70.8635 44.3858 69.567 44.6549C68.2704 44.924 67.0828 45.5715 66.1543 46.5155C65.2257 47.4596 64.598 48.6578 64.3504 49.9586C64.1029 51.2594 64.2467 52.6045 64.7636 53.8236C65.2805 55.0427 66.1473 56.0812 67.2543 56.8076C68.3614 57.5341 69.6591 57.916 70.9832 57.905C72.7537 57.8746 74.4415 57.1502 75.6832 55.8877C76.9248 54.6253 77.6212 52.9257 77.6222 51.155Z" fill="#202439"/>
<path d="M69.9868 60.45H71.7568L72.4208 59.1219H69.3208L69.9868 60.45Z" fill="#202439"/>
<path d="M58.3629 55.3599L55.933 56.4709C55.6272 56.6258 55.3713 56.8637 55.1944 57.1572C55.0176 57.4508 54.9269 57.7883 54.933 58.1309C50.949 60.0119 50.3959 59.9019 50.3959 60.5659V68.1999C47.7399 68.1999 46.9659 71.5199 48.2959 71.5199C52.9439 71.2979 54.382 71.9619 54.382 70.9669C54.3725 70.1963 54.0697 69.4583 53.5352 68.9032C53.0006 68.3481 52.2746 68.0175 51.505 67.9789V60.7869L55.3779 59.0159C56.5949 60.4539 58.478 58.5729 59.804 58.2409C60.0114 58.1599 60.1988 58.035 60.3535 57.8747C60.5081 57.7145 60.6263 57.5227 60.6999 57.3125C60.7735 57.1023 60.8008 56.8787 60.78 56.657C60.7591 56.4353 60.6905 56.2207 60.5789 56.0279C60.3641 55.6561 60.0154 55.3804 59.6041 55.2571C59.1927 55.1339 58.7498 55.1724 58.3659 55.3649L58.3629 55.3599Z" fill="#202439"/>
<path d="M95.105 72.7329H46.529C45.8276 72.7425 45.1576 73.0254 44.6616 73.5214C44.1655 74.0175 43.8826 74.6875 43.873 75.3889V75.8309C43.902 76.3741 44.0534 76.9036 44.316 77.3799C45.533 79.0399 47.4161 78.2649 49.0741 78.4869L52.062 104.601C52.1076 104.926 52.2651 105.226 52.5074 105.448C52.7497 105.67 53.0618 105.801 53.39 105.818H88.356C88.6898 105.819 89.0116 105.694 89.2577 105.469C89.5037 105.243 89.6559 104.933 89.6841 104.601L92.45 78.3759C94.221 78.1539 96.101 78.9289 97.319 77.2689C97.6308 76.8143 97.7863 76.2706 97.762 75.7199V75.2779C97.7549 74.9364 97.6805 74.5996 97.5431 74.2868C97.4058 73.974 97.2081 73.6914 96.9614 73.455C96.7148 73.2187 96.424 73.0332 96.1056 72.9093C95.7872 72.7854 95.4476 72.7255 95.106 72.7329H95.105Z" fill="#202439"/>
<path d="M91.3431 60.45C91.3431 59.786 90.6791 59.897 86.6951 58.015C86.7137 57.6842 86.6269 57.356 86.4473 57.0777C86.2676 56.7994 86.0042 56.5852 85.6951 56.466L83.2601 55.359C83.0639 55.2645 82.8511 55.2097 82.6337 55.1975C82.4163 55.1854 82.1986 55.2162 81.9931 55.2881C81.7876 55.3601 81.5983 55.4718 81.436 55.6169C81.2737 55.7621 81.1416 55.9378 81.0471 56.134C80.8823 56.5337 80.8702 56.98 81.0131 57.3881C81.156 57.7961 81.4439 58.1374 81.8221 58.347L84.2571 59.454C84.4661 59.5444 84.6941 59.5825 84.9211 59.565C85.3833 59.5458 85.8198 59.3475 86.1381 59.012L90.0111 60.783V67.975C87.2451 67.975 86.3601 71.516 87.6871 71.516C92.3351 71.294 93.7731 71.959 93.7731 70.963C93.7699 70.2383 93.4956 69.541 93.004 69.0085C92.5124 68.4761 91.8393 68.1469 91.1172 68.086C91.3382 67.864 91.3381 60.008 91.3381 60.451L91.3431 60.45Z" fill="#202439"/>
<defs>
<filter id="filter0_d_87_87" x="0" y="0" width="141" height="141" filterUnits="userSpaceOnUse" color-interpolation-filters="sRGB">
<feFlood flood-opacity="0" result="BackgroundImageFix"/>
<feColorMatrix in="SourceAlpha" type="matrix" values="0 0 0 0 0 0 0 0 0 0 0 0 0 0 0 0 0 0 127 0" result="hardAlpha"/>
<feOffset/>
<feGaussianBlur stdDeviation="10"/>
<feColorMatrix type="matrix" values="0 0 0 0 0 0 0 0 0 0 0 0 0 0 0 0 0 0 0.184 0"/>
<feBlend mode="normal" in2="BackgroundImageFix" result="effect1_dropShadow_87_87"/>
<feBlend mode="normal" in="SourceGraphic" in2="effect1_dropShadow_87_87" result="shape"/>
</filter>
</defs>
</svg>
