<svg width="141" height="141" viewBox="0 0 141 141" fill="none" xmlns="http://www.w3.org/2000/svg">
<g filter="url(#filter0_d_87_83)">
<path d="M111 20H30C24.4772 20 20 24.4772 20 30V111C20 116.523 24.4772 121 30 121H111C116.523 121 121 116.523 121 111V30C121 24.4772 116.523 20 111 20Z" fill="#FFC700"/>
</g>
<path d="M47.1537 99.5928C46.1537 103.908 52.5757 105.457 53.5717 101.142C53.9553 99.7456 54.4345 98.3773 55.0057 97.0468C54.7164 93.5776 53.576 90.2332 51.6857 87.3098C49.9354 91.3121 48.4208 95.4135 47.1497 99.5928H47.1537Z" fill="#202439"/>
<path d="M75.3699 61.196C75.0723 61.3338 74.8087 61.5353 74.5977 61.7864C74.3867 62.0374 74.2336 62.3318 74.1491 62.6486C74.0647 62.9654 74.051 63.297 74.109 63.6197C74.167 63.9424 74.2953 64.2484 74.4848 64.516L75.3699 61.196Z" fill="#202439"/>
<path d="M86.2148 62.966V57.324C84.2244 59.322 81.6059 60.5726 78.8008 60.865L77.6938 65.402C80.6898 65.2935 83.6143 64.4574 86.2148 62.966V62.966Z" fill="#202439"/>
<path d="M39.9619 73.8098H41.9529V100.256H39.9619V73.8098Z" fill="#202439"/>
<path d="M74.375 73.8098H76.366V100.256H74.375V73.8098Z" fill="#202439"/>
<path d="M93.961 79.7859C95.5314 79.7984 97.0542 79.2468 98.2522 78.2313C99.4503 77.2159 100.244 75.8041 100.489 74.2529C100.581 73.8914 100.618 73.5183 100.6 73.1459V58.0979C100.6 56.3371 99.9005 54.6484 98.6555 53.4034C97.4104 52.1583 95.7218 51.4589 93.961 51.4589C92.2002 51.4589 90.5116 52.1583 89.2665 53.4034C88.0215 54.6484 87.322 56.3371 87.322 58.0979V63.6309C91.306 61.0859 89.757 58.3199 91.97 56.8809C92.4894 56.526 93.1002 56.3285 93.7291 56.3121C94.358 56.2956 94.9782 56.4609 95.5155 56.7882C96.0527 57.1154 96.4842 57.5906 96.7582 58.1569C97.0321 58.7232 97.1369 59.3565 97.06 59.9809C96.617 63.1899 93.96 68.6119 87.212 70.9349V73.5909C87.101 73.5909 81.569 73.9229 81.901 73.9229H81.785C80.9315 73.9901 80.1377 74.3872 79.572 75.0299C79.0058 75.7156 78.6932 76.5756 78.687 77.4649L79.794 93.7309C79.8421 94.5756 80.214 95.3692 80.8324 95.9466C81.4508 96.524 82.268 96.8407 83.114 96.8309H83.336C83.7748 96.8099 84.2049 96.7006 84.6005 96.5096C84.9962 96.3186 85.3492 96.0498 85.6386 95.7192C85.928 95.3887 86.1478 95.0032 86.2848 94.5858C86.4218 94.1684 86.4732 93.7276 86.436 93.2899L85.551 80.3429C90.529 80.0119 92.742 79.7909 93.96 79.7909L93.961 79.7859Z" fill="#202439"/>
<path d="M92.744 50.4629C93.2627 50.4738 93.7812 50.4366 94.293 50.3519C101.044 49.0239 100.044 39.0679 93.185 39.0679C91.7149 39.0767 90.3048 39.6522 89.2483 40.6746C88.1919 41.697 87.5705 43.0875 87.5136 44.5565C87.4566 46.0256 87.9685 47.46 88.9426 48.5611C89.9167 49.6623 91.278 50.3452 92.743 50.4679L92.744 50.4629Z" fill="#202439"/>
<path d="M59.7681 43.1589C59.7683 44.319 59.4244 45.4531 58.7801 46.4177C58.1357 47.3824 57.2197 48.1343 56.148 48.5783C55.0763 49.0223 53.8969 49.1385 52.7591 48.9123C51.6213 48.686 50.5762 48.1274 49.7559 47.3071C48.9356 46.4868 48.377 45.4417 48.1507 44.3039C47.9245 43.1661 48.0407 41.9867 48.4847 40.915C48.9288 39.8433 49.6806 38.9273 50.6453 38.2829C51.6099 37.6386 52.744 37.2947 53.9041 37.2949C55.4592 37.2952 56.9506 37.9131 58.0503 39.0127C59.1499 40.1124 59.7678 41.6038 59.7681 43.1589" fill="#202439"/>
<path d="M42.3957 68.61H48.8137C48.9668 68.0672 48.9022 67.4862 48.6337 66.9902C48.3652 66.4943 47.9139 66.1226 47.3757 65.954C45.8267 65.511 43.2817 64.405 43.2817 62.745C43.2817 61.196 44.9417 59.094 46.0477 57.987L45.8257 64.073C46.4651 64.3899 47.1314 64.6493 47.8167 64.848C48.6098 65.062 49.2917 65.5701 49.7234 66.269C50.1551 66.9679 50.3044 67.805 50.1407 68.61H58.2177C58.054 67.8053 58.2029 66.9684 58.6343 66.2695C59.0656 65.5707 59.747 65.0624 60.5397 64.848C61.2243 64.647 61.8904 64.3877 62.5307 64.073L62.3087 57.987C70.4967 66.728 58.1087 63.851 59.4317 68.61H65.8497C69.6117 66.397 70.3867 62.856 68.6157 59.094C67.3987 56.549 63.1937 51.902 61.4237 51.57C59.3468 50.5983 57.0776 50.1068 54.7847 50.132C52.2466 50.1575 49.7343 50.6448 47.3707 51.57C46.0427 51.57 38.1867 58.32 39.1827 63.853C39.0737 65.844 40.2907 67.394 42.3927 68.61H42.3957Z" fill="#202439"/>
<path d="M42.7278 73.8109C42.2848 74.4749 42.5058 75.028 42.5058 76.799C42.5013 77.331 42.6989 77.845 43.0588 78.2369C43.2394 78.434 43.4633 78.5865 43.7128 78.6825C43.9623 78.7784 44.2307 78.8152 44.4968 78.7899C44.8264 79.304 45.2841 79.7234 45.8248 80.007C51.3578 82.884 56.6688 90.6299 56.2248 100.035C56.1701 100.915 56.4652 101.78 57.0458 102.444C57.6264 103.107 58.4456 103.514 59.3248 103.576H59.5468C60.4099 103.582 61.2409 103.249 61.8615 102.649C62.4821 102.049 62.843 101.23 62.8668 100.367C63.1541 96.3936 62.5922 92.4046 61.2185 88.6651C59.8449 84.9257 57.6909 81.5215 54.8998 78.679H56.4518C57.9337 80.3019 59.2325 82.0829 60.3248 83.99C61.0998 82.109 61.8738 80.339 62.5378 78.679C62.6488 78.679 65.5258 79.122 65.5258 76.688C65.4148 74.917 65.6368 74.364 65.3038 73.7C65.0828 73.81 41.5138 73.8099 42.7308 73.8099L42.7278 73.8109Z" fill="#202439"/>
<path d="M75.1499 67.2849H68.0669V68.6129H76.9189V67.2849H76.5869C76.3629 67.3945 76.1168 67.4514 75.8674 67.4514C75.618 67.4514 75.3719 67.3945 75.1479 67.2849H75.1499Z" fill="#202439"/>
<path d="M75.9241 66.3969C76.4771 66.3969 76.4771 65.7329 76.5881 65.5119C76.5881 65.4009 78.3591 58.6509 78.2481 59.0939C78.3591 58.7619 78.1371 58.5409 77.8051 58.4299C76.9201 58.2079 77.0301 59.6469 76.5881 61.0859C76.5881 61.3079 75.3711 66.0649 75.3711 65.7339C75.2601 65.9549 75.4821 66.3969 75.9241 66.3969V66.3969Z" fill="#202439"/>
<path d="M101.817 65.9559H101.706C101.524 65.9925 101.361 66.0887 101.24 66.2291C101.12 66.3695 101.05 66.5461 101.042 66.7309V80.5559H88.2066C86.9896 80.5559 87.6536 82.3269 87.4316 83.8759C87.4316 84.8759 88.6486 84.5399 88.8696 84.6509V99.1509H90.1976V84.6559H103.808V99.1559H105.132V66.7279C105.132 65.5109 103.361 66.1749 101.812 65.9529L101.817 65.9559Z" fill="#202439"/>
<path d="M80.7928 72.814H35.4258V69.7139H77.5009C77.5072 69.9903 77.5765 70.2615 77.7035 70.5071C77.8305 70.7526 78.012 70.966 78.2339 71.1309C78.7396 71.5206 79.3624 71.7277 80.0009 71.718C80.2681 71.7193 80.5343 71.6856 80.7928 71.6179V72.8179V72.814Z" fill="#202439"/>
<path d="M96.063 59.8679C96.1196 59.2893 95.9482 58.7114 95.5851 58.2573C95.2221 57.8032 94.6961 57.5087 94.1192 57.4367C93.5423 57.3646 92.96 57.5205 92.4964 57.8714C92.0328 58.2222 91.7244 58.7401 91.637 59.3149C91.4085 60.5268 90.8996 61.6684 90.1508 62.6483C89.4021 63.6282 88.4343 64.4191 87.325 64.9579C84.559 66.3959 82.456 66.2859 80.243 66.3959C79.026 66.3959 78.225 67.8829 78.189 68.6119C78.1958 68.9514 78.2934 69.2828 78.4717 69.5718C78.65 69.8608 78.9026 70.0966 79.203 70.2549C80.0767 70.5345 80.9859 70.6881 81.903 70.7109C89.98 70.3789 95.292 65.3999 96.067 59.8669L96.063 59.8679Z" fill="#202439"/>
<defs>
<filter id="filter0_d_87_83" x="0" y="0" width="141" height="141" filterUnits="userSpaceOnUse" color-interpolation-filters="sRGB">
<feFlood flood-opacity="0" result="BackgroundImageFix"/>
<feColorMatrix in="SourceAlpha" type="matrix" values="0 0 0 0 0 0 0 0 0 0 0 0 0 0 0 0 0 0 127 0" result="hardAlpha"/>
<feOffset/>
<feGaussianBlur stdDeviation="10"/>
<feColorMatrix type="matrix" values="0 0 0 0 0 0 0 0 0 0 0 0 0 0 0 0 0 0 0.184 0"/>
<feBlend mode="normal" in2="BackgroundImageFix" result="effect1_dropShadow_87_83"/>
<feBlend mode="normal" in="SourceGraphic" in2="effect1_dropShadow_87_83" result="shape"/>
</filter>
</defs>
</svg>
