<svg width="17" height="12" viewBox="0 0 17 12" fill="none" xmlns="http://www.w3.org/2000/svg">
<path d="M2.02606 10.4346C1.54515 9.95963 1.17328 9.39523 0.93392 8.77703C0.694559 8.15884 0.592909 7.50029 0.635386 6.84295C0.635386 3.92603 2.79408 1.31183 5.93285 0.0195312L6.71718 1.16787C3.78762 2.6714 3.21462 4.62229 2.98627 5.85203C3.51498 5.61827 4.10182 5.5286 4.68117 5.59303C5.47558 5.64914 6.21602 5.99558 6.74647 6.55936C7.27691 7.12314 7.55595 7.86023 7.52478 8.61533C7.49362 9.37042 7.15468 10.0846 6.57939 10.6073C6.00409 11.13 5.23737 11.4204 4.44076 11.4175C3.9897 11.4136 3.54395 11.3247 3.12941 11.156C2.71487 10.9872 2.33982 10.742 2.02606 10.4346ZM10.8112 10.4346C10.3303 9.95963 9.95841 9.39523 9.71905 8.77703C9.47969 8.15884 9.37804 7.50029 9.42052 6.84295C9.42052 3.92603 11.5792 1.31183 14.718 0.0195312L15.5023 1.16787C12.5728 2.6714 11.9997 4.62229 11.7714 5.85203C12.3001 5.61827 12.8869 5.5286 13.4663 5.59303C14.2607 5.64914 15.0012 5.99558 15.5316 6.55936C16.062 7.12314 16.3411 7.86023 16.3099 8.61533C16.2787 9.37042 15.9398 10.0846 15.3645 10.6073C14.7892 11.13 14.0225 11.4204 13.2259 11.4175C12.7748 11.4136 12.3291 11.3247 11.9145 11.156C11.5 10.9872 11.125 10.742 10.8112 10.4346Z" fill="#202439"/>
</svg>
