<svg width="117" height="111" viewBox="0 0 117 111" fill="none" xmlns="http://www.w3.org/2000/svg">
<path d="M22.2025 77.9154C19.5505 75.1541 17.4997 71.873 16.1797 68.2791C14.8597 64.6853 14.2991 60.8568 14.5333 57.0353C14.5333 40.0778 26.438 24.8802 43.7475 17.3674L48.0729 24.0433C31.9171 32.7841 28.7572 44.1256 27.4979 51.2746C30.4136 49.9157 33.6498 49.3943 36.8448 49.7689C41.2258 50.0951 45.3091 52.1092 48.2344 55.3867C51.1597 58.6642 52.6985 62.9493 52.5266 67.339C52.3547 71.7288 50.4856 75.8804 47.313 78.9192C44.1404 81.958 39.9121 83.6466 35.519 83.6292C33.0315 83.6067 30.5733 83.0899 28.2872 82.109C26.0012 81.1281 23.9329 79.7027 22.2025 77.9154V77.9154ZM70.6503 77.9154C67.9983 75.1541 65.9475 71.873 64.6275 68.2791C63.3074 64.6853 62.7469 60.8568 62.9811 57.0353C62.9811 40.0778 74.8858 24.8802 92.1953 17.3674L96.5207 24.0433C80.3649 32.7841 77.2049 44.1256 75.9456 51.2746C78.8614 49.9157 82.0976 49.3943 85.2926 49.7689C89.6736 50.0951 93.7569 52.1092 96.6822 55.3867C99.6075 58.6642 101.146 62.9493 100.974 67.339C100.803 71.7288 98.9334 75.8804 95.7608 78.9192C92.5882 81.958 88.3599 83.6466 83.9668 83.6292C81.4793 83.6067 79.0211 83.0899 76.735 82.109C74.449 81.1281 72.3807 79.7027 70.6503 77.9154V77.9154Z" fill="#FFC700"/>
</svg>
