<svg width="123" height="112" viewBox="0 0 123 112" fill="none" xmlns="http://www.w3.org/2000/svg">
<g opacity="0.6">
<path opacity="0.6" d="M106.356 28.9594L105.64 27.5185C103.94 27.6035 102.237 27.3936 100.633 26.9013L70.8272 42.1346L67.9611 40.8989C64.0666 39.3725 59.8391 38.5828 55.562 38.5828C51.285 38.5828 47.0574 39.3725 43.1629 40.8989C42.5042 41.1316 41.8668 41.407 41.2561 41.7227L8.11262 24.8389C7.58887 24.542 6.99891 24.3431 6.38073 24.255C5.76256 24.1669 5.12988 24.1915 4.52338 24.3272C3.91688 24.463 3.35003 24.7068 2.8593 25.0431C2.36857 25.3794 1.96483 25.8007 1.67409 26.2798C1.32282 26.7301 1.08629 27.2396 0.980184 27.7747C0.874078 28.3097 0.900808 28.8582 1.05859 29.3836C1.21638 29.9091 1.50162 30.3997 1.89546 30.8229C2.2893 31.246 2.78274 31.5922 3.34314 31.8384L36.7244 48.923L39.1083 85.9756C39.1221 86.6125 39.3004 87.2388 39.6303 87.8086C39.9602 88.3785 40.4333 88.8775 41.015 89.2694C38.3917 101.826 37.6769 112.326 39.8231 131.057C40.0127 132.695 40.9482 134.2 42.4237 135.243C43.1544 135.759 43.9956 136.146 44.8994 136.381C45.8032 136.617 46.7519 136.696 47.6913 136.615C48.6307 136.534 49.5424 136.294 50.3743 135.909C51.2063 135.524 51.9422 135.001 52.5401 134.37C53.138 133.739 53.5861 133.013 53.8589 132.233C54.1316 131.453 54.2237 130.633 54.1298 129.822C51.9836 111.709 52.6985 102.445 55.3218 90.2999H56.7531C59.137 101.622 59.8518 110.677 57.4679 129.822C57.2784 131.46 57.8502 133.096 59.0577 134.37C60.2651 135.644 62.0093 136.452 63.9065 136.615C65.8037 136.779 67.6985 136.285 69.174 135.243C70.6496 134.2 71.5851 132.695 71.7747 131.057C73.9209 112.943 73.9208 102.443 71.0598 88.8575C71.9865 88.0104 72.5719 86.9277 72.7289 85.7704L75.1128 49.3349L105.156 33.8965C104.949 33.2877 104.976 32.6373 105.234 32.0432C105.493 31.4491 105.967 30.9436 106.587 30.6027L107.779 29.9855L106.356 28.9594Z" fill="white"/>
<path opacity="0.6" d="M40.3066 20.9324V22.1681C40.3066 24.0063 40.726 25.8265 41.5408 27.5247C42.3556 29.223 43.5499 30.766 45.0554 32.0658C46.561 33.3656 48.3483 34.3967 50.3155 35.1001C52.2826 35.8035 54.3909 36.1656 56.5201 36.1656C58.6493 36.1656 60.7576 35.8035 62.7247 35.1001C64.6918 34.3967 66.4792 33.3656 67.9848 32.0658C69.4904 30.766 70.6846 29.223 71.4994 27.5247C72.3142 25.8265 72.7336 24.0063 72.7336 22.1681V20.9324C66.7739 21.1391 61.5273 21.3443 56.043 21.3443C50.7964 21.3443 45.3138 21.1376 40.3066 20.9324Z" fill="white"/>
<path opacity="0.6" d="M75.3588 3.63812H75.1211L75.3605 3.8448L75.3588 3.63812Z" fill="white"/>
<path opacity="0.6" d="M72.4959 10.6391L67.4887 12.08L57.2366 14.9619H55.8053C55.5659 14.9619 44.5973 11.8748 45.3138 12.08L40.3066 10.6391V19.081C51.0995 19.8022 61.9407 19.8022 72.7336 19.081V10.6391H72.4959Z" fill="white"/>
<path opacity="0.6" d="M34.3458 7.13714C34.5852 7.13714 40.3071 8.78331 40.0677 8.78331C40.3055 8.78331 57.2355 13.7233 56.0435 13.3128H56.5206C56.7584 13.3128 73.6884 8.37286 72.4964 8.78331C72.7342 8.78331 78.4578 7.13714 78.2184 7.13714C78.6939 6.93046 78.6939 6.51856 78.2184 6.51856C77.9807 6.51856 67.727 3.63667 68.4401 3.84335L56.5206 0.549561H56.0435C55.8058 0.549561 35.7771 6.31333 37.2067 5.90143L34.3407 6.72524C33.8669 6.51856 33.8669 6.93192 34.3407 7.13714H34.3458Z" fill="white"/>
<path opacity="0.6" d="M123.047 33.8979L121.14 30.6041C120.901 30.3974 120.425 30.1922 120.186 30.3974L119.232 30.8093L118.04 28.7512C118.007 28.6719 117.953 28.6008 117.88 28.5441C117.808 28.4875 117.721 28.4472 117.627 28.4267C117.532 28.4062 117.433 28.4063 117.339 28.4269C117.244 28.4474 117.157 28.4879 117.085 28.5446L113.747 29.9855L110.17 24.2217C109.932 24.0151 110.17 23.6046 110.409 23.3979C111.392 22.533 112.155 21.5001 112.649 20.3657C113.142 19.2312 113.356 18.0202 113.275 16.8103C114.467 17.017 117.805 11.4585 114.467 6.31184L113.99 5.69471C113.958 5.6154 113.903 5.54425 113.831 5.48762C113.759 5.43099 113.672 5.39064 113.577 5.37017C113.483 5.3497 113.384 5.34975 113.289 5.37032C113.195 5.39089 113.108 5.43133 113.036 5.48803L109.696 6.92897C109.258 6.33151 108.86 5.71289 108.504 5.07613L89.6673 13.7218C90.0288 14.3218 90.347 14.9406 90.6198 15.5746L87.2817 17.0156C87.0423 17.2223 86.8046 17.6327 87.0423 17.8394L87.2817 18.4565C90.3804 23.6032 97.5338 24.424 98.0109 23.3965C100.368 24.8234 103.27 25.4128 106.117 25.0426C106.594 25.0426 106.832 25.0426 107.071 25.2493L110.647 31.0131V31.2198L107.309 32.6607C107.071 32.8674 106.832 33.0726 106.832 33.2778V33.4845L108.024 35.5426L107.309 36.1612C107.217 36.1893 107.135 36.2367 107.069 36.2989C107.004 36.3612 106.957 36.4365 106.934 36.518C106.91 36.5996 106.911 36.6849 106.934 36.7664C106.958 36.8479 107.005 36.923 107.071 36.985L108.978 40.2788C109.01 40.3581 109.064 40.4292 109.136 40.4859C109.208 40.5426 109.295 40.5829 109.39 40.6034C109.484 40.6239 109.583 40.6238 109.677 40.6033C109.772 40.5827 109.859 40.5422 109.93 40.4855L122.806 34.7217C122.898 34.6937 122.98 34.6465 123.046 34.5843C123.111 34.5221 123.158 34.4469 123.182 34.3653C123.205 34.2837 123.205 34.1983 123.181 34.1168C123.158 34.0352 123.111 33.96 123.045 33.8979H123.047ZM113.031 6.7252C113.851 7.94438 114.284 9.32936 114.284 10.7395C114.284 12.1496 113.851 13.5345 113.031 14.7537C112.748 12.2856 111.853 9.89888 110.407 7.7557L113.031 6.7252ZM88.7114 17.8408L91.3347 16.6051C92.6275 18.8055 94.4104 20.7642 96.5812 22.3689C94.9293 22.2624 93.3371 21.7896 91.9587 20.9964C90.5804 20.2032 89.4624 19.1163 88.713 17.8408H88.7114ZM102.302 21.1346L101.11 17.8408L97.2944 17.0141L100.393 14.956L100.155 11.6623L103.254 13.5151L107.309 12.4875L106.117 15.5746L108.501 18.2498H104.685L102.302 21.1346ZM108.74 33.6912L116.848 29.987L117.8 31.4279L109.694 35.1321L108.74 33.6912ZM109.932 39.0431L108.74 36.985L109.694 36.5731L119.232 32.0436L119.946 31.6317L121.138 33.6898L109.932 39.0431Z" fill="white"/>
</g>
</svg>
