<svg width="153" height="123" viewBox="0 0 153 123" fill="none" xmlns="http://www.w3.org/2000/svg">
<g opacity="0.6">
<g opacity="0.6">
<path opacity="0.6" d="M136.356 39.9594L135.64 38.5185C133.94 38.6035 132.237 38.3936 130.633 37.9013L100.827 53.1346L97.9611 51.8989C94.0666 50.3725 89.8391 49.5828 85.562 49.5828C81.285 49.5828 77.0574 50.3725 73.1629 51.8989C72.5042 52.1316 71.8668 52.407 71.2561 52.7227L38.1126 35.8389C37.5889 35.542 36.9989 35.3431 36.3807 35.255C35.7626 35.1669 35.1299 35.1915 34.5234 35.3272C33.9169 35.463 33.35 35.7068 32.8593 36.0431C32.3686 36.3794 31.9648 36.8007 31.6741 37.2798C31.3228 37.7301 31.0863 38.2396 30.9802 38.7747C30.8741 39.3097 30.9008 39.8582 31.0586 40.3836C31.2164 40.9091 31.5016 41.3997 31.8955 41.8229C32.2893 42.246 32.7827 42.5922 33.3431 42.8384L66.7244 59.923L69.1083 96.9756C69.1221 97.6125 69.3004 98.2388 69.6303 98.8086C69.9602 99.3785 70.4333 99.8775 71.015 100.269C68.3917 112.826 67.6769 123.326 69.8231 142.057C70.0127 143.695 70.9482 145.2 72.4237 146.243C73.1544 146.759 73.9956 147.146 74.8994 147.381C75.8032 147.617 76.7519 147.696 77.6913 147.615C78.6307 147.534 79.5424 147.294 80.3743 146.909C81.2063 146.524 81.9422 146.001 82.5401 145.37C83.138 144.739 83.5861 144.013 83.8589 143.233C84.1316 142.453 84.2237 141.633 84.1298 140.822C81.9836 122.709 82.6985 113.445 85.3218 101.3H86.7531C89.137 112.622 89.8518 121.677 87.4679 140.822C87.2784 142.46 87.8502 144.096 89.0577 145.37C90.2651 146.644 92.0093 147.452 93.9065 147.615C95.8037 147.779 97.6985 147.285 99.174 146.243C100.65 145.2 101.585 143.695 101.775 142.057C103.921 123.943 103.921 113.443 101.06 99.8575C101.987 99.0104 102.572 97.9277 102.729 96.7704L105.113 60.3349L135.156 44.8965C134.949 44.2877 134.976 43.6373 135.234 43.0432C135.493 42.4491 135.967 41.9436 136.587 41.6027L137.779 40.9855L136.356 39.9594Z" fill="white"/>
<path opacity="0.6" d="M70.3066 31.9324V33.1681C70.3066 35.0063 70.726 36.8265 71.5408 38.5247C72.3556 40.223 73.5499 41.766 75.0554 43.0658C76.561 44.3656 78.3483 45.3967 80.3155 46.1001C82.2826 46.8035 84.3909 47.1656 86.5201 47.1656C88.6493 47.1656 90.7576 46.8035 92.7247 46.1001C94.6918 45.3967 96.4792 44.3656 97.9848 43.0658C99.4904 41.766 100.685 40.223 101.499 38.5247C102.314 36.8265 102.734 35.0063 102.734 33.1681V31.9324C96.7739 32.1391 91.5273 32.3443 86.043 32.3443C80.7964 32.3443 75.3138 32.1376 70.3066 31.9324Z" fill="white"/>
<path opacity="0.6" d="M105.359 14.6381H105.121L105.36 14.8448L105.359 14.6381Z" fill="white"/>
<path opacity="0.6" d="M102.496 21.6391L97.4887 23.08L87.2366 25.9619H85.8053C85.5659 25.9619 74.5973 22.8748 75.3138 23.08L70.3066 21.6391V30.081C81.0995 30.8022 91.9407 30.8022 102.734 30.081V21.6391H102.496Z" fill="white"/>
<path opacity="0.6" d="M64.3458 18.1371C64.5852 18.1371 70.3071 19.7833 70.0677 19.7833C70.3055 19.7833 87.2355 24.7233 86.0435 24.3128H86.5206C86.7584 24.3128 103.688 19.3729 102.496 19.7833C102.734 19.7833 108.458 18.1371 108.218 18.1371C108.694 17.9305 108.694 17.5186 108.218 17.5186C107.981 17.5186 97.727 14.6367 98.4401 14.8434L86.5206 11.5496H86.0435C85.8058 11.5496 65.7771 17.3133 67.2067 16.9014L64.3407 17.7252C63.8669 17.5186 63.8669 17.9319 64.3407 18.1371H64.3458Z" fill="white"/>
<path opacity="0.6" d="M153.047 44.8979L151.14 41.6041C150.901 41.3974 150.425 41.1922 150.186 41.3974L149.232 41.8093L148.04 39.7512C148.007 39.6719 147.953 39.6008 147.88 39.5441C147.808 39.4875 147.721 39.4472 147.627 39.4267C147.532 39.4062 147.433 39.4063 147.339 39.4268C147.244 39.4474 147.157 39.4878 147.085 39.5446L143.747 40.9855L140.17 35.2217C139.932 35.015 140.17 34.6046 140.409 34.3979C141.392 33.533 142.155 32.5001 142.649 31.3657C143.142 30.2312 143.356 29.0202 143.275 27.8103C144.467 28.017 147.805 22.4585 144.467 17.3118L143.99 16.6947C143.958 16.6154 143.903 16.5442 143.831 16.4876C143.759 16.431 143.672 16.3906 143.577 16.3702C143.483 16.3497 143.384 16.3497 143.289 16.3703C143.195 16.3909 143.108 16.4313 143.036 16.488L139.696 17.929C139.258 17.3315 138.86 16.7129 138.504 16.0761L119.667 24.7218C120.029 25.3218 120.347 25.9406 120.62 26.5746L117.282 28.0156C117.042 28.2222 116.805 28.6327 117.042 28.8394L117.282 29.4565C120.38 34.6031 127.534 35.424 128.011 34.3965C130.368 35.8234 133.27 36.4128 136.117 36.0426C136.594 36.0426 136.832 36.0426 137.071 36.2493L140.647 42.0131V42.2198L137.309 43.6607C137.071 43.8674 136.832 44.0726 136.832 44.2778V44.4845L138.024 46.5426L137.309 47.1612C137.217 47.1893 137.135 47.2366 137.069 47.2989C137.004 47.3612 136.957 47.4364 136.934 47.518C136.91 47.5996 136.911 47.6849 136.934 47.7664C136.958 47.8479 137.005 47.923 137.071 47.985L138.978 51.2788C139.01 51.3581 139.064 51.4292 139.136 51.4859C139.208 51.5425 139.295 51.5829 139.39 51.6034C139.484 51.6239 139.583 51.6238 139.677 51.6032C139.772 51.5827 139.859 51.5422 139.93 51.4854L152.806 45.7217C152.898 45.6937 152.98 45.6465 153.046 45.5843C153.111 45.5221 153.158 45.4469 153.182 45.3653C153.205 45.2837 153.205 45.1983 153.181 45.1167C153.158 45.0352 153.111 44.96 153.045 44.8979H153.047ZM143.031 17.7252C143.851 18.9444 144.284 20.3293 144.284 21.7394C144.284 23.1496 143.851 24.5345 143.031 25.7537C142.748 23.2856 141.853 20.8989 140.407 18.7557L143.031 17.7252ZM118.711 28.8408L121.335 27.6051C122.627 29.8055 124.41 31.7642 126.581 33.3689C124.929 33.2624 123.337 32.7896 121.959 31.9964C120.58 31.2031 119.462 30.1162 118.713 28.8408H118.711ZM132.302 32.1346L131.11 28.8408L127.294 28.0141L130.393 25.956L130.155 22.6622L133.254 24.5151L137.309 23.4875L136.117 26.5746L138.501 29.2498H134.685L132.302 32.1346ZM138.74 44.6912L146.848 40.9869L147.8 42.4279L139.694 46.1321L138.74 44.6912ZM139.932 50.0431L138.74 47.985L139.694 47.5731L149.232 43.0436L149.946 42.6317L151.138 44.6897L139.932 50.0431Z" fill="white"/>
</g>
</g>
</svg>
